<?xml version="1.0" standalone="no"?>
<!DOCTYPE svg PUBLIC "-//W3C//DTD SVG 1.1//EN" "http://www.w3.org/Graphics/SVG/1.1/DTD/svg11.dtd" >
<svg xmlns="http://www.w3.org/2000/svg">
<metadata>Generated by IcoMoon</metadata>
<defs>
<font id="icomoon" horiz-adv-x="1024">
<font-face units-per-em="1024" ascent="960" descent="-64" />
<missing-glyph horiz-adv-x="1024" />
<glyph unicode="&#x20;" horiz-adv-x="512" d="" />
<glyph unicode="&#xe900;" d="M663.24 174.84c-42.579 0.056-77.647 32.143-82.404 73.456l-0.036 0.384h-131.76c-4.694-41.756-39.806-73.916-82.43-73.916-42.758 0-77.957 32.363-82.438 73.93l-0.032 0.366h-22.54c-21.548 0.003-40.179 12.488-49.058 30.618l-0.142 0.322c-15.809 2.64-27.713 16.206-27.74 32.557v22.403c0.027 14.415 9.28 26.661 22.168 31.15l0.232 0.070v227.5c0.034 30.119 24.441 54.526 54.557 54.56h216.003v19.18c-0.006 0.309-0.010 0.672-0.010 1.037 0 29.68 24.060 53.74 53.74 53.74s53.74-24.060 53.74-53.74c0-0.365-0.004-0.728-0.011-1.091l0.001 0.054v-19.18h30.92c7.202 0 14.076-1.403 20.364-3.95l-0.364 0.13 3.12 3.12 15.18-15.060 146.8-146.82c12.206-12.946 19.778-30.378 20-49.576v-71.604c10.828-5.552 18.111-16.634 18.12-29.419v-22.401c-0.018-14.534-9.418-26.867-22.467-31.272l-0.233-0.068c-8.634-19.377-27.723-32.64-49.911-32.64-0.031 0-0.063 0-0.094 0h-20.855c-4.783-41.694-39.845-73.782-82.414-73.84h-0.006zM663.24 262.18c-2.441 0-4.42-1.979-4.42-4.42s1.979-4.42 4.42-4.42c2.441 0 4.42 1.979 4.42 4.42v0c0 2.441-1.979 4.42-4.42 4.42v0zM366.62 262.18c-2.441 0-4.42-1.979-4.42-4.42s1.979-4.42 4.42-4.42c2.441 0 4.42 1.979 4.42 4.42v0c0 2.441-1.979 4.42-4.42 4.42v0zM472.82 430c0-0.020 0-0.044 0-0.068 0-2.718-0.387-5.345-1.109-7.829l0.049 0.198c9.274 5.835 16.898 13.452 22.568 22.428l0.172 0.292c-2.293-0.673-4.926-1.060-7.651-1.060-0.010 0-0.021 0-0.031 0h-13.998zM374.58 445.020c5.839-9.264 13.456-16.881 22.427-22.547l0.293-0.173c-0.673 2.287-1.060 4.914-1.060 7.632 0 0.024 0 0.048 0 0.072v-0.004 14h-14c-0.004 0-0.008 0-0.012 0-2.723 0-5.356 0.387-7.847 1.109l0.199-0.049zM704.4 486l-74 74c-2.359 2.429-5.132 4.441-8.207 5.925l-0.173 0.075h-4v-80zM486.8 520.5c0.002 0 0.005 0 0.007 0 2.732 0 5.373-0.387 7.873-1.109l-0.2 0.049c-5.84 9.276-13.464 16.9-22.447 22.567l-0.293 0.173c0.673-2.287 1.060-4.914 1.060-7.632 0-0.024 0-0.048 0-0.072v0.004-14zM397.3 542.18c-9.265-5.846-16.881-13.469-22.547-22.446l-0.173-0.294c2.295 0.673 4.932 1.060 7.659 1.060 0.007 0 0.015 0 0.022 0h13.999v14c0 0.006 0 0.014 0 0.022 0 2.734 0.387 5.377 1.109 7.879l-0.049-0.2z" />
<glyph unicode="&#xe901;" d="M495.34 492.22v-20c-0.011-4.712-3.828-8.529-8.539-8.54h-33.721v-33.68c0 0 0 0 0 0 0-4.721-3.821-8.549-8.539-8.56h-20.001c-4.719 0.011-8.54 3.839-8.54 8.56 0 0 0 0 0 0v0 33.66h-33.74c-4.712 0.011-8.529 3.828-8.54 8.539v20.001c0.011 4.712 3.828 8.529 8.539 8.54h33.741v33.72c0 0 0 0 0 0 0 4.721 3.821 8.549 8.539 8.56h20.001c4.714-0.023 8.529-3.844 8.54-8.559v-33.721h33.72c4.705-0.011 8.517-3.817 8.54-8.518v-0.002zM819.6 335.060v-22.4c0-7.312-5.928-13.24-13.24-13.24v0h-5.1c-1.98-17.51-16.704-30.994-34.579-31h-24.681c-5.374 39.092-38.558 68.88-78.7 68.88s-73.326-29.788-78.653-68.466l-0.047-0.414h-139.3c-5.453 39.008-38.597 68.704-78.676 68.704-39.944 0-73-29.496-78.573-67.896l-0.051-0.428h-26.4c-17.738 0.005-32.372 13.289-34.503 30.45l-0.017 0.17h-9.44c-7.312 0-13.24 5.928-13.24 13.24v0 22.4c0 0 0 0 0 0 0 7.301 5.919 13.22 13.22 13.22 0.007 0 0.014 0 0.021 0h9.159v245.4c0 19.231 15.589 34.82 34.82 34.82v0h354.38c0.005 0 0.012 0 0.018 0 8.903 0 17.021-3.363 23.153-8.888l-0.031 0.027 147.96-147.98c8.67-9.364 14.083-21.852 14.379-35.601l0.001-0.059v-87.76h4.88c0.006 0 0.013 0 0.020 0 7.287 0 13.197-5.896 13.22-13.178v-0.002zM524.88 482.2c0 0.006 0 0.013 0 0.020 0 49.893-40.447 90.34-90.34 90.34s-90.34-40.447-90.34-90.34c0-49.893 40.447-90.34 90.34-90.34v0c49.886 0 90.329 40.435 90.34 90.319v0.001zM736.68 481.68c-17.44 17.42-92.32 92.3-92.32 92.3s-11.34 11.88-21.78 11.88-2.38-0.18-14-0.18-10.28-13.52-10.28-13.52v-90.44c0-17.78 18.1-15.46 18.1-15.46h117s20.7-2.020 3.28 15.42zM429.8 257.68c0-0.006 0-0.013 0-0.020 0-34.893-28.287-63.18-63.18-63.18s-63.18 28.287-63.18 63.18c0 34.893 28.287 63.18 63.18 63.18v0c0 0 0 0 0 0 34.858 0 63.123-28.23 63.18-63.075v-0.005zM390.78 257.68c-0.011 13.335-10.824 24.14-24.16 24.14-13.343 0-24.16-10.817-24.16-24.16s10.817-24.16 24.16-24.16v0c0 0 0 0 0 0 13.343 0 24.16 10.817 24.16 24.16 0 0.035 0 0.070 0 0.105v-0.005zM565.28 644v23.42c0 18.778-15.222 34-34 34s-34-15.222-34-34v0-23.42zM726.4 257.76c0-0.006 0-0.013 0-0.020 0-34.893-28.287-63.18-63.18-63.18s-63.18 28.287-63.18 63.18c0 34.893 28.287 63.18 63.18 63.18 0.007 0 0.014 0 0.021 0h-0.001c34.878-0.011 63.149-28.282 63.16-63.159v-0.001zM687.4 257.76c-0.011 13.335-10.824 24.14-24.16 24.14-13.343 0-24.16-10.817-24.16-24.16s10.817-24.16 24.16-24.16v0c13.343 0 24.16 10.817 24.16 24.16 0 0.007 0 0.014 0 0.021v-0.001z" />
<glyph unicode="&#xe902;" d="M459.12 178.6c-0.232-0.001-0.505-0.002-0.78-0.002-8.003 0-15.883 0.531-23.605 1.56l0.904-0.099c-79.52 12.54-131.020 47.28-153.080 103.24-64 162.2 154.36 444.58 163.7 456.54l15.74 20.16 15.52-20.2c9.1-11.84 222.2-291.76 159.64-454.52-21.26-55.34-70.52-90.44-146.4-104.36-8.79-1.345-18.993-2.156-29.369-2.239l-0.091-0.001z" />
<glyph unicode="&#xe903;" d="M638.46 136c-0.126-0.001-0.276-0.001-0.426-0.001-4.941 0-9.805 0.335-14.569 0.983l0.554-0.062c-47.72 7.54-78.78 28.76-92.32 63.12-36.94 93.74 79.36 246.72 92.74 263.96l15.68 20 15.54-20.2c13.060-16.98 126.56-168.64 90.48-262.52-13.060-34-42.8-55.42-88.4-63.78-5.372-0.84-11.604-1.348-17.945-1.4h-0.055z" />
<glyph unicode="&#xe904;" d="M654.18 156.92c-4.354-0.64-9.418-1.031-14.565-1.080h-0.055c-0.4-0.006-0.872-0.010-1.345-0.010-3.918 0-7.778 0.251-11.563 0.737l0.448-0.047c-193.8 30.56 12.9 295.24 12.9 295.24s200.48-260.68 14.18-294.84zM612.8 448.32c-42 137.5-150.98 279.36-150.98 279.36s-369.82-473.4-23.1-528.12c5.955-0.776 12.843-1.219 19.834-1.219 0.867 0 1.732 0.007 2.596 0.020l-0.13-0.002c9.311 0.107 18.355 0.83 27.211 2.132l-1.091-0.132c15.85 2.869 29.644 6.584 42.96 11.308l-1.9-0.588c-20.98 79.84 53.62 194.3 84.6 237.24z" />
<glyph unicode="&#xe905;" d="M356.46 294.54c-4.84 7.18-11.040 22.82-14.42 39.62 0 0-0.8 4.5-1.16 6.78-1.060 7.22-1.38 21.2-1.38 21.2 0.4 17.12 3.78 33.6 7.3 41.52 7.3 16.2-9.44 22.4-16.74 12.84-9.66-16.38-14.82-57.82-8.62-85.14v0c4.12-21.4 12.4-42.68 20.74-52.42 8.88-8.1 24.28 0.92 14.28 15.6z" />
<glyph unicode="&#xe906;" d="M588.26 208.4c-2.82 4.18-6.44 13.3-8.4 23.1 0 0-0.46 2.62-0.68 4-0.64 4.2-0.82 12.38-0.82 12.38 0.049 8.691 1.607 17.003 4.422 24.708l-0.162-0.508c4.28 9.44-5.5 13.060-9.76 7.5-5.64-9.56-8.62-33.72-5.020-49.64v0c2.4-12.48 7.22-24.9 12-30.58 5.3-4.78 14.28 0.48 8.42 9.040z" />
<glyph unicode="&#xe907;" d="M500 149.88c-151.84 117.5-222.88 180-269.82 262.96-44.36 78.46-39.16 140-27 177.8 14.7 45.66 47.84 82.4 93.34 103.48 21.594 10.29 46.929 16.3 73.668 16.3 0.054 0 0.107 0 0.161 0h-0.009c57.863-0.135 109.177-28.053 141.328-71.115l0.332-0.465c32.495 43.556 83.844 71.487 141.722 71.6h0.018c0.037 0 0.082 0 0.126 0 26.748 0 52.091-6.010 74.755-16.752l-1.061 0.452c45.52-21.080 78.64-57.84 93.34-103.48 12.16-37.8 17.34-99.34-27-177.8-46.94-82.96-118-145.46-269.8-262.96l-12-9.34z" />
<glyph unicode="&#xe908;" d="M512 165.5c144.56 111.88 218 174.34 264.7 257.060 65.78 116.38 26 215.040-57.42 253.64-19.249 9.129-41.822 14.459-65.64 14.459-62.359 0-116.184-36.537-141.235-89.371l-0.405-0.948c-25.458 53.778-79.28 90.312-141.636 90.312-23.812 0-46.38-5.328-66.576-14.856l0.952 0.404c-83.36-38.62-123.22-137.28-57.46-253.64 46.72-82.72 120.14-145.18 264.72-257.060z" />
<glyph unicode="&#xe909;" d="M479.8 299.9c-4.68 62.78-11.32 150.54-14.48 189.72-6.64-11.14-15.52-26.36-23.78-40.82-16.16-69.8-16.22-69.86-22.56-69.6l-5.86 0.22-0.94 5.82c-7.22 45.1-9.48 133.84-10.18 188.64l-41.020-134.42-16.1 70c-2.56-15.66-5.7-32.78-8.76-44-8.56-31.52-18.9-73.78-19-74.2l-7.12 0.34-6.88 0.3-16.62 109.18-15.74-48.96h-270.76v14.28h260.4l21.84 68 13.84-1.12 15.82-104c3.26 12.78 7.020 27.26 10.46 40 6.54 24.12 13.86 79.040 14 79.58l14 0.68 12.58-54.76 39.060 128 14-2c0-1.4-0.1-117.040 6-193.42 2.12 9.020 4.24 18.2 6 25.78l0.76 2c17.16 30 26.78 45.46 31.74 54 0.16 0.26 16.68 0 16.78-0.88 1.62-12.36 4.24-40 8.96-101.88q0.54-7.22 1.080-14.38c3.16 22.4 7.64 44.34 14 59.68 9.154 21.098 17.938 46.746 24.825 73.159l0.855 3.861 14-0.7 9.32-74.28 18.94 47.060 13.74-2.24 2-32h99v-14.28h-112.68l-0.82 13.74-17.14-42.66-13.66-0.74-8.66 69.1c-4.12-12.7-9.62-28.26-16.7-45.44-17.48-42.7-20.34-144.98-20.34-146.020l-14.26-0.36z" />
<glyph unicode="&#xe90a;" d="M400.84 126.6c-9.28 0-26.1 4.22-34.78 32.44-11.060 36-18 163.32-18 207.46 0 10.36 0.24 21.1 0.48 32 0.82 37.040 1.68 75.36-7.060 105.060-3.88 13.2-10.82 28.56-18.18 44.82-14.92 32.98-31.8 70.34-31.8 108.32v1.16c0.1 2 3 47.18 25.020 82.98 6.78 11.020 20.7 24.12 48.58 24.12 29.54 0 62.36-14.82 75.1-21.2 6.44-3.22 25.48-7.16 59.58-8.6h1.44c17.48 0 46.74 11.1 72.58 20.9 13.76 5.2 35.44 13.42 59.34 13.42 25.86 0 61.46-10 84.32-57.42 29.7-61.68 9.44-109.18-5.32-143.86-3.2-7.54-6.24-14.64-8.36-20.98-12.48-37.38-25.8-110.4-23.62-144.98 1.62-26 4.4-170.96-21.64-231.72-7.56-17.62-20.16-41.060-42.36-41.060v0c-19.78 0-34.18 18.42-39.54 50.52-5.040 30.14-15.6 135.9-15.6 169.080 0 25-16 50-31.6 59.82-4.399 3.050-9.794 4.96-15.621 5.198l-0.059 0.002c-5.471-0.155-10.488-1.976-14.594-4.971l0.074 0.051c-9.22-6.24-26.48-17.72-33.22-65.16-2.64-18.5-5.060-44.86-7.4-70.36-5.42-59.080-9.22-96.1-16.24-112-9.78-22-25.3-35.12-41.48-35.12z" />
<glyph unicode="&#xe90b;" d="M311.16 656.66s2.46 41.82 22.12 73.8 83.26 2.98 98-4.42 48-9.84 67.6-10.66c21.34-0.9 53.42 11.36 82.64 22.44 27.64 10.46 86 32 118-34.42s-2.32-113.14-14.62-150-26.9-113.12-24.52-152.48 2-171.060-20-222.7-39.34-24.58-44.26 4.92-15.34 133.88-15.34 165.84-19.56 63.14-40.86 76.54c-19.18 12-36.88 9.84-51.64 0s-34.44-27.060-41.8-78.7-12.3-154.92-22.14-177.060-29.5-36.9-39.34-4.9-17.22 154.92-17.22 201.66 4.92 100.82-7.38 142.62-49.24 95.88-49.24 147.52z" />
<glyph unicode="&#xe90c;" d="M271.44 142.94c-16.84 0-32.42 9.66-41.64 25.84-10.26 18-10.68 40.14-1.020 56.42l171.7 290.52v167.48c-13.582 1.72-23.982 13.193-24 27.098v15.462c0.011 15.073 12.227 27.289 27.299 27.3h216.341c15.064-0.023 27.269-12.234 27.28-27.299v-15.461c-0.012-13.877-10.361-25.334-23.762-27.085l-0.138-0.015v-170.36l171.3-289.1c4.641-8.075 7.378-17.755 7.378-28.074 0-10.461-2.813-20.266-7.725-28.698l0.146 0.272c-8.68-15.22-23.68-24.32-40.12-24.32z" />
<glyph unicode="&#xe90d;" d="M777.84 213.68l-174 293.76v195.3h16.36c4.162 0.023 7.529 3.396 7.54 7.559v15.461c0 0 0 0 0 0 0 4.168-3.373 7.549-7.539 7.56h-216.321c-4.171-0.011-7.549-3.389-7.56-7.559v-15.461c0.011-4.171 3.389-7.549 7.559-7.56h16.361v-192.44l-174.46-295.16c-11.74-19.86 2.36-52.46 25.68-52.46h483.040c23.3 0 35.080 31.14 23.34 51z" />
<glyph unicode="&#xe90e;" d="M579.94 547.68l0.1-0.16 0.020 155.22h-136.1v-152.26l0.24 0.4v-45.26l-94.74-161.82h325.68l-95.2 160.32v43.56z" />
<glyph unicode="&#xe90f;" d="M409.72 275.26c0-14.326-11.614-25.94-25.94-25.94s-25.94 11.614-25.94 25.94c0 14.326 11.614 25.94 25.94 25.94s25.94-11.614 25.94-25.94z" />
<glyph unicode="&#xe910;" d="M661.58 301.2c0-15.254-12.366-27.62-27.62-27.62s-27.62 12.366-27.62 27.62c0 15.254 12.366 27.62 27.62 27.62s27.62-12.366 27.62-27.62z" />
<glyph unicode="&#xe911;" d="M572.88 329.66c0-14.326-11.614-25.94-25.94-25.94s-25.94 11.614-25.94 25.94c0 14.326 11.614 25.94 25.94 25.94s25.94-11.614 25.94-25.94z" />
<glyph unicode="&#xe912;" d="M484.18 343.040c0-21.716-17.604-39.32-39.32-39.32s-39.32 17.604-39.32 39.32c0 21.716 17.604 39.32 39.32 39.32v0c21.716 0 39.32-17.604 39.32-39.32v0z" />
<glyph unicode="&#xe913;" d="M624.24 365.66c0-21.716-17.604-39.32-39.32-39.32s-39.32 17.604-39.32 39.32c0 21.716 17.604 39.32 39.32 39.32s39.32-17.604 39.32-39.32z" />
<glyph unicode="&#xe914;" d="M392.14 339.7c0-9.709-7.871-17.58-17.58-17.58s-17.58 7.871-17.58 17.58c0 9.709 7.871 17.58 17.58 17.58s17.58-7.871 17.58-17.58z" />
<glyph unicode="&#xe915;" d="M546.1 256.020c0-9.709-7.871-17.58-17.58-17.58s-17.58 7.871-17.58 17.58c0 9.709 7.871 17.58 17.58 17.58s17.58-7.871 17.58-17.58z" />
<glyph unicode="&#xe916;" d="M518.18 121.32c-207.080 0-272.12 68-290.18 125.080-17.6 55.56 6.98 114.92 39.84 138 38.72 27.26 103.32 50 136.98 60.62-20.52 29.48-35.88 66.54-42.96 107.7-0.6 3.52-0.94 6.94-1.22 10.38-8.56 31.32-17.7 88.84 10.88 137.14 20 33.68 54 56.38 101.44 67.5 15.408 4.368 33.104 6.88 51.387 6.88 0.061 0 0.122 0 0.183 0h-0.010c47.5 0 130.64-18 153.76-139 0.88-5.64 6.92-48-2.26-78.34-0.32-1.82-0.66-3.68-1.060-5.52-9.3-42.44-26-80-47.3-109.56l13.72-5.060c45.54-16.76 88.56-32.6 119.62-58.76 23.66-20 55.14-85.28 33.66-144.58-26.76-73.88-118-111.74-271.38-112.54z" />
<glyph unicode="&#xe917;" d="M523.1 144c-343.9-2-292.3 186.78-242.28 222 43.66 30.72 125.38 56.12 145.5 62 4.035-4.925 8.050-9.345 12.274-13.555l0.006-0.005-1.52-0.24s-92.38-25.080-138.58-56.42-93.84-199.28 223.76-197.68c313.52 1.6 235.52 169.6 206.22 193.4-31.2 25.3-78.7 39.22-130 58 7.48-120.86-82-244.44-82-244.44-72.64 88.2-77.18 196.46-74.98 244.7 4.511-4.242 9.37-8.276 14.469-12l0.431-0.3c-0.34-30.14 2.62-77.080 19.18-126 3.42 30 15.68 68 20 81.040-7.103 8.559-12.27 18.981-14.679 30.418l-0.081 0.462c11.1-4.957 24.043-7.89 37.659-8h0.041c10.495 0.131 20.492 2.093 29.742 5.579l-0.602-0.199c-2.2-12-9-26-18.2-33.72 7.921-23.289 15.62-52.52 21.5-82.404l0.76-4.636c16.42 38.82 32 89.84 30.78 140.92 8.742 7.119 16.515 14.758 23.526 23.060l0.214 0.26c55.36-21.020 106.52-36.64 140.14-64.98 31.72-26.78 116.2-215.56-223.28-217.26zM670.76 335.020h-18.76c-4.418 0-8-3.582-8-8v0-31.62h-31.62c-4.418 0-8-3.582-8-8v0-18.76c0-4.418 3.582-8 8-8v0h31.62v-31.62c0-4.418 3.582-8 8-8v0h18.76c4.418 0 8 3.582 8 8v0 31.5h31.62c4.418 0 8 3.582 8 8v0 18.76c0 4.418-3.582 8-8 8v0h-31.62v31.64c0 4.418-3.582 8-8 8v0zM382.9 567.22c-12.2 43.2-28.56 150 95.8 178.78 0 0 146.66 46.1 177.36-114.52 0 0 6.5-42.6-2-68.82-0.34-2-0.68-4-1.1-6-19.32-88.28-75.5-158.94-134.4-158.94-60.82 0-118.84 68.78-134.38 158.94-0.72 3.54-0.96 7.040-1.28 10.56zM624.4 624.48c-26.58 8-82.32 26.68-109.4 51.7 0 0-66.18-43.34-96.96-44.72-11.405-17.33-18.193-38.58-18.193-61.416 0-6.714 0.587-13.291 1.712-19.682l-0.099 0.678c13.54-78.5 64-138.42 117.040-138.42 51.3 0 100.22 61.54 117.060 138.42 1.517 6.658 2.386 14.303 2.386 22.151 0 18.858-5.019 36.543-13.794 51.794l0.268-0.505z" />
<glyph unicode="&#xe918;" d="M665.82 699.6h-24v1.48h-35.82c-11.16 42.329-49.099 73.034-94.21 73.034s-83.050-30.705-94.058-72.355l-0.152-0.678h-35.42v-1.48h-24c-55.44 0-100.56-43.44-100.56-96.86v-384.36c0-53.2 45.12-96.48 100.56-96.48h307.66c55.44 0 100.56 43.28 100.56 96.48v384.36c-0.020 53.4-45.12 96.86-100.56 96.86zM512 710.14c0.006 0 0.013 0 0.020 0 7.522 0 13.62-6.098 13.62-13.62s-6.098-13.62-13.62-13.62c-7.522 0-13.62 6.098-13.62 13.62 0 0 0 0 0 0v0c0 0.042-0.001 0.091-0.001 0.141 0 7.445 6.035 13.48 13.48 13.48 0.042 0 0.085 0 0.127-0.001h-0.006z" />
<glyph unicode="&#xe919;" d="M665.82 679.84h-22.76v-58.94h14.94c15.538-0.068 28.109-12.674 28.12-28.219v-213.321h-52.6l-1.52 24.64-10.5 1.7-14.48-36-7.020 56.78-10.7 0.52c-5.958-23.217-12.689-42.863-20.741-61.812l1.061 2.812c-4.8-11.78-8.24-28.6-10.66-45.78-0.3 3.68-0.56 7.34-0.84 11.020-3.6 47.44-5.6 68.64-6.82 78.12 0 0.6-12.72 0.88-12.82 0.68-3.8-6.56-11.16-18.4-24.26-41.42l-0.58-1.5c-1.34-5.82-2.98-12.82-4.58-19.74-4.6 58.54-4.52 147.2-4.52 148.26l-10.66 1.62-29.88-98.22-9.62 42-10.7-0.5c0-0.4-5.66-42.52-10.66-61.020-2.64-9.78-5.5-20.88-8-30.68l-12 79.74-10.58 0.86-16.7-52h-47.9v213.26c0.011 15.56 12.605 28.175 28.156 28.22h15.704v58.92h-23.52c-44.48 0-80.8-34.86-80.8-77.1v-384.36c0-42.26 36.32-76.74 80.8-76.74h307.64c44.48 0 80.8 34.48 80.8 76.74v384.36c0 42.26-36.32 77.1-80.8 77.1zM686.16 230.52c-0.023-15.551-12.612-28.155-28.156-28.2h-292.004c-15.527 0.068-28.089 12.665-28.1 28.199v137.901h55.8l12 37.54 12.68-83.7 5.24-0.24 5.44-0.26c0 0.34 8 32.74 14.52 56.9 2.34 8.62 4.72 21.74 6.68 33.74l12.3-53.68 31.34 103.040c0.52-42 2.26-110 7.78-144.6l0.74-4.46 4.48-0.16c4.84-0.22 4.9-0.18 17.24 53.36 6.3 11.080 13.080 22.74 18.16 31.3 2.4-30 7.48-97.32 11.060-145.46l10.88 0.28c0 0.8 2.14 79.2 15.5 111.82 5.42 13.18 9.62 25.1 12.76 34.84l6.6-52.96 10.44 0.56 13.1 32.72 0.62-10.54h62.94zM622.16 580.92v100.4h-33c-2.439 40.773-36.101 72.916-77.27 72.916s-74.831-32.143-77.26-72.702l-0.010-0.214h-32.62v-100.38zM512.16 729.88c0.006 0 0.013 0 0.020 0 18.424 0 33.36-14.936 33.36-33.36s-14.936-33.36-33.36-33.36c-18.417 0-33.349 14.924-33.36 33.339v0.001c0 0.053 0 0.117 0 0.18 0 18.333 14.851 33.197 33.178 33.22h0.002z" />
<glyph unicode="&#xe91a;" d="M500 149.88c-151.84 117.5-222.88 180-269.82 262.96-44.36 78.48-39.16 140-27 177.82 14.7 45.66 47.84 82.4 93.34 103.48 21.6 10.29 46.941 16.3 73.685 16.3 0.047 0 0.095 0 0.142 0h-0.007c57.867-0.137 109.183-28.063 141.328-71.134l0.332-0.466c32.493 43.558 83.843 71.49 141.722 71.6h0.018c0.031 0 0.067 0 0.104 0 26.755 0 52.106-6.010 74.778-16.753l-1.062 0.453c45.52-21.080 78.64-57.84 93.34-103.48 12.16-37.8 17.34-99.34-27-177.82-46.94-82.96-118-145.46-269.8-262.96l-12-9.34z" />
<glyph unicode="&#xe91b;" d="M719.28 676.22c-19.247 9.127-41.817 14.456-65.633 14.456-62.365 0-116.195-36.544-141.243-89.387l-0.405-0.949c-25.454 53.787-79.282 90.328-141.644 90.328-23.809 0-46.374-5.326-66.568-14.852l0.952 0.404c-83.36-38.62-123.22-137.28-57.46-253.66 46.72-82.72 120.14-145.18 264.72-257.060 144.56 111.88 218 174.32 264.7 257.060 65.78 116.38 25.92 215.040-57.42 253.66zM625.7 409.38c0-8.837-7.163-16-16-16v0h-63.040v-63.060c0-8.837-7.163-16-16-16v0h-37.4c-8.837 0-16 7.163-16 16v0 63.1h-63c-8.837 0-16 7.163-16 16v0 37.38c0 8.837 7.163 16 16 16v0h63.080v63.040c0 8.837 7.163 16 16 16v0h37.4c8.837 0 16-7.163 16-16v0-63.060h63.080c8.837 0 16-7.163 16-16v0z" />
<glyph unicode="&#xe91c;" d="M250.28 182.24c-37.891 0.046-68.595 30.75-68.64 68.636v355.124c0.045 37.895 30.747 68.603 68.635 68.66h135.325v38c0.023 24.015 19.485 43.477 43.498 43.5h165.422c24.014-0.034 43.469-19.503 43.48-43.519v-38.001h128.6c37.903-0.034 68.623-30.74 68.68-68.635v-355.105c-0.057-37.893-30.765-68.595-68.656-68.64h-0.004zM560.94 674.6v8.26h-98.24v-8.26z" />
<glyph unicode="&#xe91d;" d="M442.96 692.5c0.101 5.611 4.673 10.121 10.298 10.121 0.043 0 0.085 0 0.128-0.001h116.874c0.042 0.001 0.092 0.001 0.142 0.001 5.626 0 10.198-4.51 10.298-10.112v-13.609h37.58v33.74c-0.045 13.1-10.658 23.706-23.757 23.74h-165.423c-13.102-0.034-23.715-10.64-23.76-23.736v-33.744h37.6z" />
<glyph unicode="&#xe91e;" d="M594.82 459.060h-55.72v55.72c-0.034 7.781-6.338 14.077-14.118 14.1h-32.982c-7.778-0.023-14.077-6.322-14.1-14.098v-55.722h-55.8c-7.787-0.011-14.097-6.315-14.12-14.098v-33.062c0.023-7.789 6.331-14.097 14.118-14.12h55.722v-55.78c0.079-7.749 6.379-14 14.139-14 0.014 0 0.029 0 0.043 0h33.058c7.789 0.023 14.097 6.331 14.12 14.118v55.662h55.72c7.781 0.034 14.077 6.338 14.1 14.118v33.042c-0.011 7.801-6.338 14.12-14.14 14.12-0.014 0-0.028 0-0.042 0h0.002z" />
<glyph unicode="&#xe91f;" d="M766.62 654.84h-516.34c-26.981-0.011-48.854-21.864-48.9-48.836v-355.104c0.011-27.002 21.898-48.889 48.899-48.9h516.341c27.011 0 48.909 21.891 48.92 48.899v355.101c-0.046 26.983-21.93 48.84-48.92 48.84 0 0 0 0 0 0v0zM508.46 279.2c-82.403 0.011-149.2 66.815-149.2 149.22 0 82.412 66.808 149.22 149.22 149.22s149.22-66.808 149.22-149.22v0c0-82.412-66.808-149.22-149.22-149.22-0.007 0-0.014 0-0.021 0h0.001z" />
<glyph unicode="&#xe920;" d="M403.2 116.9c-9.674 0.158-18.304 4.495-24.185 11.279l-0.035 0.041-10.98 11c-4.54 4-14 14.18-11.38 28.56 1.655 8.506 6.974 15.514 14.212 19.427l0.148 0.073-71.82 66.72c-5.76-0.52-11.22-1.16-16.3-1.9-2.4-0.364-5.173-0.574-7.994-0.58h-0.006c-15.8 0-27.3 7.020-33.42 14.22l-16.26 16.26c-10.34 10-14 22.86-9.42 34.12 2.64 6.52 10.12 17.46 30.54 17.46h1.080c15.26 0.84 31.64 1.22 52.92 1.22 9.62 0 19.24 0 28.82-0.14s18.82-0.14 28.14-0.14c9.76 0 19.46 0 29.020 0.34-0.56 7.78-1.26 15.38-2 22.7-4.6 42.6-8 149.68 59.1 224.32 34.6 38.46 83.22 57.18 130.38 65.58v1.32c1.986 37.009 8.781 71.736 19.786 104.53l-0.806-2.77c1.080 3.38 2 6.12 3.12 8.78 5.2 12.4 15.84 19.82 28.38 19.82s22.64-8 25.34-10.5l13.44-13.4 1.14-1.080c15.18-14.36 15.48-23.88 12.42-45.52l-0.14-1-1.14-4.92 47.52-47.54c7.78 0.36 14.4 0.7 18.82 0.92h2.2c14.088-0.307 26.607-6.766 35.021-16.788l0.059-0.072 21.18-21.16 0.8-1.020c3.42-4.3 14-19.54 6.68-35.24-2.12-4.58-8.88-15.24-25.8-16-3.14-0.22-6.44-0.34-10-0.34v0c-15.76 0-33.88 2.18-54.88 4.7-17.020 2-35.62 4.28-54.74 5.48 0-0.14 0-0.28 0-0.42 7.28-74.84 6.28-171.040-66.58-251.8-28.82-32-69.82-53.060-121.86-62.76l-2.7-0.5c-1.56-16.84-3.64-34.48-6.34-52.68-4.58-30.76-17.86-59-37.36-79.5-5.982-6.729-14.623-10.982-24.259-11.1h-0.021zM475.46 373.1c0.14-8 0.2-16.94 0.1-26.68 11.959 3.568 22.314 8.002 32.027 13.445l-0.787-0.405-31.34 13.64zM555.040 412c1.38 3.38 2.72 7.020 4 10.9l-80 54.26c-1.447-8.644-2.595-19.199-3.186-29.902l-0.034-0.778zM573.58 494.42q0.6 5.3 1.080 10.66l-50 41.12c-4.611-3.365-8.653-6.697-12.492-10.244l0.092 0.084z" />
<glyph unicode="&#xe921;" d="M385.54 204.52l-78.3 72.78c-10.36-0.7-19.6-1.7-27.6-2.84-15.32-2.16-21.4 6.4-21.4 6.4l-17.1 17.14s-14.2 13.76 6.72 13.020c47.2 2.68 96.5 0 142.94 1.38 0.5-12 0.74-24 0.68-35.6-21.26 0-39.68 1.2-52.54 1.4l50.54-46.96c-0.855-10.093-2.249-19.218-4.2-28.135l0.26 1.415zM645.84 668.88l18.76-18.76c9.3 0 20 0.32 30.72 0.68l-44.62 44.64c1.12 5.52 2.34 11 3.58 16.32 2.74 19.48 1.82 18.86-7.2 27.5l-12.64 12.64s-12.42 11.3-17.76-1.38c-0.98-2.3-1.72-4.7-2.48-7.060-9.589-28.317-15.995-61.075-17.858-95.044l-0.042-0.956c13.953 1.681 30.194 2.681 46.653 2.76h0.107c0.94 6.18 1.74 12.44 2.78 18.66zM639.38 579.72c-0.94 0-1.9 0-2.84 0-0.328 0.001-0.716 0.002-1.105 0.002-13.387 0-26.552-0.953-39.429-2.795l1.474 0.173c0.3-3.7 0.6-7.32 0.9-10.84 0.62-6.68 0.84-14.7 0.82-23.48l-33.2 27.4c-9.151-2.904-16.908-6.131-24.323-9.931l0.883 0.411 55.62-45.72c-1.522-22.275-4.208-42.632-8.071-62.568l0.511 3.168-96.62 65.48c-2.36-3-4.68-6-6.9-9.3-1.821-2.753-3.45-5.911-4.727-9.243l-0.113-0.337 103-69.88c-5.12-19.68-11.74-37.1-20-49.46l-93.6 40.76c-0.14-8.54-0.12-16.72 0-24.22l79.020-34.4c-21.7-22.38-48.68-35.4-78.9-42.94-0.38-12.2-1.060-25.34-2-39.1 39.88 7.44 80 23.2 109.26 55.7 69.28 76.82 66.96 171.4 60.84 234.44-0.22 2.12-0.34 4.42-0.5 6.68zM783.26 603.080l-21.16 21.14s-7.4 10-19.28 9.32c-20.36-1.040-62.92-3.14-87.88-2.72-37.1 0.62-138.28-1.28-194.84-64.12s-59.080-154.58-53.42-206.7 8.16-150.64-10-181.020c-3.063-4.357-7.104-7.828-11.817-10.139l-0.183-0.081c-12.36-4.12-1.34-12.88-1.34-12.88l12.4-12.4s6.78-9.040 15.48 0.12c16.66 17.5 27.58 41.72 31.38 67.26 6.683 43.588 10.5 93.874 10.5 145.051 0 5.91-0.051 11.808-0.152 17.694l0.012-0.885c-0.68 37.9-4 117.24 18.34 150 83.040 121.26 243.84 60.74 309.32 65.78 13.94 0.34 2.64 14.58 2.64 14.58z" />
<glyph unicode="&#xe922;" d="M403.18 124.98c-0.055 0-0.12 0-0.185 0-11.646 0-22.188 4.724-29.815 12.36v0l-39.52 39.5-39.44-39.46c-7.686-7.66-18.29-12.396-30-12.396s-22.314 4.736-30.001 12.397l-32.859 32.859c-7.665 7.684-12.404 18.288-12.404 30s4.739 22.316 12.405 30.001l39.459 39.459-39.48 39.48c-7.665 7.684-12.404 18.288-12.404 30s4.739 22.316 12.405 30.001l-0.001-0.001 32.92 32.82c7.684 7.665 18.288 12.404 30 12.404s22.316-4.739 30.001-12.405l39.479-39.479 14.52 14.5c-22.739 37.969-36.185 83.765-36.185 132.702 0 144.378 117.042 261.42 261.42 261.42 72.256 0 137.664-29.314 184.982-76.699l0.003-0.003c102-102 102-267.76 0-369.72-47.331-47.287-112.696-76.532-184.89-76.532-48.847 0-94.567 13.388-133.691 36.694l1.201-0.662-14.5-14.52 39.4-39.46c7.665-7.684 12.404-18.288 12.404-30s-4.739-22.316-12.405-30.001l-32.879-32.879c-7.61-7.66-18.15-12.4-29.797-12.4-0.071 0-0.143 0-0.214 0.001h0.011zM573.6 645.58c-75.108-0.004-135.993-60.892-135.993-136 0-75.111 60.889-136 136-136s136 60.889 136 136c0 37.562-15.228 71.567-39.847 96.18v0c-24.476 24.598-58.355 39.821-95.788 39.821-0.131 0-0.261 0-0.392-0.001h0.020z" />
<glyph unicode="&#xe923;" d="M742.52 340.68c43.251 43.229 70.003 102.962 70.003 168.942 0 131.919-106.941 238.86-238.86 238.86s-238.86-106.941-238.86-238.86c0-50.71 15.802-97.729 42.751-136.402l-0.514 0.78-43.32-43.28-55.42 55.28c-3.605 3.535-8.547 5.717-14 5.717s-10.395-2.182-14.003-5.72l-32.877-32.877c-3.535-3.605-5.717-8.547-5.717-14s2.182-10.395 5.72-14.003l55.437-55.437-55.42-55.42c-3.535-3.605-5.717-8.547-5.717-14s2.182-10.395 5.72-14.003l32.857-32.857c3.605-3.535 8.547-5.717 14-5.717s10.395 2.182 14.003 5.72l55.397 55.417 55.46-55.44c3.605-3.535 8.547-5.717 14-5.717s10.395 2.182 14.003 5.72l32.897 32.877c3.535 3.605 5.717 8.547 5.717 14s-2.182 10.395-5.72 14.003l-55.437 55.437 43.38 43.32c37.901-26.446 84.933-42.256 135.657-42.256 65.94 0 125.64 26.717 168.865 69.917l-0.001-0.001zM461.48 621.7c28.695 28.699 68.338 46.45 112.128 46.45 87.57 0 158.56-70.99 158.56-158.56s-70.99-158.56-158.56-158.56c-43.79 0-83.433 17.751-112.127 46.45v0c-28.684 28.695-46.424 68.331-46.424 112.11s17.74 83.415 46.424 112.11v0z" />
<glyph unicode="&#xe924;" d="M440.24 121.88c-0.075 0-0.164 0-0.252 0-120.641 0-218.44 97.799-218.44 218.44 0 97.359 63.694 179.842 151.686 208.052l1.546 0.428 6.74 2.1v30.76c0 0.060 0 0.132 0 0.203 0 16.593 7.385 31.461 19.049 41.496l0.072 0.060c-27.304 12.827-45.87 40.098-45.87 71.705 0 43.619 35.361 78.98 78.98 78.98s78.98-35.361 78.98-78.98c0-31.607-18.566-58.878-45.388-71.501l-0.482-0.204c11.747-10.096 19.14-24.971 19.14-41.574 0-0.066 0-0.131 0-0.197v0.010-18h79.46c29.8 0 54-23.42 54-52.22s-24.24-52.24-54-52.24h-79.46v-1.44h101.44c5.005-0.057 9.817-0.783 14.382-2.094l-0.382 0.094c15.223-3.585 27.738-13.139 35.179-25.996l0.141-0.264 77.14-135.5 10.96 5.64c7.351 3.862 16.057 6.137 25.293 6.16h0.007c0.188 0.002 0.41 0.004 0.632 0.004 19.87 0 37.137-11.145 45.891-27.525l0.136-0.279c13.18-25.6 2.36-57.52-24.12-71.16l-51.72-26.84c-1-0.5-2-0.92-2.86-1.28-6.946-3.791-15.214-6.020-24.003-6.020-0.041 0-0.083 0-0.124 0h0.006c-20.087 0.157-37.568 11.169-46.879 27.453l-0.141 0.267-17.46 30.68c-38.143-65.738-108.197-109.242-188.412-109.242-0.284 0-0.568 0.001-0.852 0.002h0.044zM381.54 458.14c-43.54-22.050-72.865-66.465-72.865-117.729 0-72.648 58.892-131.54 131.54-131.54 60.908 0 112.148 41.397 127.117 97.59l0.208 0.919 5.84 22.46-13.38 23.36h-124.44c-29.8 0-54 23.44-54 52.22z" />
<glyph unicode="&#xe925;" d="M616.26 254.3c-32.573-65.711-99.188-110.090-176.169-110.090-108.248 0-196 87.752-196 196 0 87.342 57.131 161.341 136.061 186.666l1.388 0.385v-44.38c-56.524-23.682-95.508-78.552-95.508-142.527 0-85.107 68.993-154.1 154.1-154.1 71.363 0 131.396 48.508 148.925 114.35l0.244 1.076zM762.26 226.8l-51.72-26.66c-0.78-0.4-1.6-0.62-2.4-0.96l-0.36-0.26c-14.16-8-32.78-2.36-41.34 12.68l-93.44 164.16h-137.44c-17.3 0-31.46 13.34-31.46 29.66 0 0.46 0.12 0.9 0.16 1.36s-0.16 1-0.16 1.52v173.36c0 17.3 13.36 31.46 29.66 31.46s29.68-14.16 29.68-31.46v-40.98c0.949 0.152 2.093 0.266 3.254 0.318l0.066 0.002h98.7c17.3 0 31.46-13.34 31.46-29.66s-14.16-29.68-31.46-29.68h-98.7c-1.217 0.050-2.36 0.172-3.48 0.362l0.16-0.022v-46.92h124c3.086-0.043 6.047-0.508 8.851-1.339l-0.231 0.059c9.099-2.018 16.592-7.692 20.998-15.364l0.082-0.156 87.84-154.28 30.2 15.54c15.38 8 34 2.54 41.56-12s1-32.8-14.38-40.74zM377.34 695.14c0 31.16 25.26 56.42 56.42 56.42s56.42-25.26 56.42-56.42c0-31.16-25.26-56.42-56.42-56.42v0c-31.16 0-56.42 25.26-56.42 56.42v0z" />
<glyph unicode="&#xe926;" d="M602.58 149.3c-25.181 0.034-45.586 20.439-45.62 45.617v158.563h-90v-158.56c-0.034-25.181-20.439-45.586-45.617-45.62h-97.803c-25.147 0.080-45.506 20.467-45.54 45.617v506.183c0.034 25.177 20.441 45.577 45.618 45.6h97.802c25.179-0.023 45.586-20.423 45.62-45.597v-158.583h90v158.58c0.034 25.177 20.441 45.577 45.618 45.6h97.802c25.145-0.068 45.506-20.451 45.54-45.597v-506.183c-0.034-25.181-20.439-45.586-45.617-45.62h-0.003z" />
<glyph unicode="&#xe927;" d="M700.38 726.96h-97.8c-14.25-0.079-25.781-11.61-25.86-25.852v-178.328h-129.4v178.32c-0.079 14.257-11.621 25.792-25.874 25.86h-97.806c-14.259-0.068-25.801-11.603-25.88-25.852v-506.188c0.079-14.257 11.621-25.792 25.874-25.86h97.806c14.259 0.068 25.801 11.603 25.88 25.852v178.308h129.4v-178.32c0.079-14.25 11.61-25.781 25.852-25.86h97.808c14.25 0.079 25.781 11.61 25.86 25.852v506.208c-0.079 14.25-11.61 25.781-25.852 25.86h-0.008z" />
<glyph unicode="&#xe928;" d="M594.48 122.36c-18.578 0.023-33.635 15.065-33.68 33.636v29.264c-18.016 4.097-32.045 17.746-36.624 35.22l-0.076 0.34h-126.28c-42.114 0.046-76.243 34.168-76.3 76.275v326.905c0.057 42.112 34.186 76.235 76.296 76.28h24.384l0.94 3.82c10.099 40.362 46.049 69.784 88.87 69.784s78.771-29.422 88.736-69.153l0.134-0.631 0.94-3.82h24.38c42.105-0.057 76.223-34.175 76.28-76.275v-326.865c-0.045-27.145-14.281-50.956-35.683-64.414l-0.317-0.186c-0.135-23.087-16.32-42.354-37.955-47.219l-0.325-0.061v-29.18c0-0.006 0-0.013 0-0.020 0-18.609-15.074-33.697-33.678-33.72h-0.002zM527 700.36c-4.018 3.417-9.266 5.495-15 5.495s-10.982-2.078-15.033-5.523l0.033 0.027z" />
<glyph unicode="&#xe929;" d="M469.14 698.78h-24c7.598 30.411 34.68 52.583 66.94 52.583s59.342-22.172 66.839-52.108l0.101-0.475h-24c-6.741 17.444-23.377 29.592-42.85 29.592s-36.11-12.148-42.743-29.279l-0.107-0.313zM626.16 677.74h-228.34c-0.030 0-0.065 0-0.1 0-29.669 0-53.72-24.051-53.72-53.72 0-0.007 0-0.014 0-0.021v0.001-326.86c0-29.669 24.051-53.72 53.72-53.72 0.007 0 0.014 0 0.021 0h147.419v-10.66c0-14.359 11.641-26 26-26v0h46.64c14.359 0 26 11.641 26 26v0 13.86c21.11 7.483 35.964 27.262 36 50.516v326.864c0 0.006 0 0.013 0 0.020 0 29.634-23.994 53.663-53.615 53.72h-0.005zM605.54 186.9h-22v-30.86c0-6.141 4.979-11.12 11.12-11.12s11.12 4.979 11.12 11.12v0z" />
<glyph unicode="&#xe92a;" d="M649.4 452v159.74c0 25.18-10.86 36.8-35.16 36.8h-204.48c-24.28 0-35.16-11.6-35.16-36.8v-159.74z" />
<glyph unicode="&#xe92b;" d="M374.6 419.6h63.84v-15.020h-63.84v15.020z" />
<glyph unicode="&#xe92c;" d="M374.6 372.86h63.84v-15.020h-63.84v15.020z" />
<glyph unicode="&#xe92d;" d="M374.6 326.12h63.84v-15.040h-63.84v15.040z" />
<glyph unicode="&#xe92e;" d="M264.98 119.48c-28.64 0-49.88 8.22-63.1 24.4-42 51.34-3.38 123 29.28 172.44 21.58 32.7 48.22 54.76 77.12 64.44-2.68-0.22-5.34-0.32-8-0.32v0c-23.68 0-36.28 9.34-42.68 17.2-30.54 37.38 2.96 88.14 15.56 107.24 18.4 27.88 43.18 43.22 69.76 43.22 0.041 0 0.089 0 0.137 0 2.509 0 4.986-0.138 7.423-0.407l-0.301 0.027c3.68 5.38 10.8 11.22 24.56 11.54 18.92 0.46 30 5.12 32.4 9.24 4 7.14 5.36 15.82 6.92 25.86 2.76 18 6.22 40.52 28 58.2 9.58 7.8 21.8 11.58 37.34 11.58 8.453-0.168 16.579-0.817 24.559-1.922l-1.079 0.122c5.84-0.843 12.756-1.419 19.772-1.595l0.228-0.005c12.42 0 16.62 3.16 20 9.020 7.48 12.96 10 23.46 12.5 33.64 4.68 19.3 10 41.18 45.88 53.46 1.68 0.6 2.62 0.84 2.62 0.84l13.060-43.18-7.82 20.74 7.36-20.88c-3-1.1-10.18-4.84-11.8-15.78-0.6-4-6.12-37.5-19-58.54-15.14-24.72-36.9-36.74-66.5-36.74-6.9 0-13.5 0.6-19.34 1.12-4.7 0.42-9.14 0.84-12.76 0.84-0.116 0.002-0.253 0.003-0.39 0.003-1.273 0-2.526-0.088-3.752-0.259l0.142 0.016c-1.153-4.926-2.235-11.212-2.995-17.598l-0.085-0.882c-2.74-20.4-6.16-45.82-22-62.22-6.142-6.413-12.98-12.075-20.416-16.891l-0.444-0.269c-5.64-3.74-8.2-5.46-13.8-14.6-1.905-3.087-4.307-5.674-7.123-7.727l-0.077-0.053c0.26-1.56 0.5-3.14 0.68-4.76 3.28-29.42-15.42-55.88-34-71.18 18.86 11.32 23.48 18 31.020 28.98 8.639 12.894 18.257 24.095 29.050 34.042l0.13 0.118c13.080 12.2 30.76 18.14 54 18.14 19.060 0 39.46-4 57.44-7.58 14-2.76 27.040-5.34 35.8-5.34 0.075-0.001 0.164-0.001 0.252-0.001 1.123 0 2.231 0.066 3.32 0.194l-0.132-0.013c6.96 9.1 5.52 33.48 4.1 57.12-2.86 48.2-6.76 114.2 49.34 159.9 31.16 25.38 98.62 32.36 106.2 33.060 29.18 3.88 39.9 25.22 42.58 32.1l0.58 1.66 42.98-13.76s-0.36-1.3-1.24-3.58c-20-55.26-51.5-62.4-84.98-70-18.8-4.24-40.12-9.060-66.1-23.5-29.040-16.16-27.72-55.38-22.38-113.38 4-43.2 7.76-84-14.36-110.34-14.54-17.28-33.54-26-56.52-26-14.14 0-28 3.14-41.3 6.2-12 2.76-23.46 5.36-33.74 5.36-0.366 0.013-0.795 0.020-1.227 0.020-6.404 0-12.435-1.599-17.716-4.419l0.202 0.099c-15.72-8.56-25.62-35.4-27.16-73.64-0.92-22.5-11.84-30-19.84-32.6 2.094-6.425 3.733-13.989 4.611-21.784l0.049-0.536c5.52-49.56-29.9-94.56-62-118-27.44-20.16-85.32-42-130.94-42zM342.16 386.32c8.52-0.008 16.794-1.043 24.711-2.988l-0.711 0.148c0.62 7.728 3.956 14.576 9.041 19.681l-0.001-0.001c-11.099-6.996-23.912-12.789-37.516-16.717l-1.064-0.263c1.82 0 3.64 0.14 5.48 0.14z" />
<glyph unicode="&#xe92f;" d="M435.4 276.96c4.6-40.6-27.86-78.96-52.84-97.36-35.54-26.1-134.1-57.080-163.2-21.44-29.8 36.5-4.68 92.26 30.62 145.72s79.28 67.3 115.5 56.46c14.78-4.34 63.7-27.46 69.92-83.38zM392.84 388.48c-3.76-2.2-7.3-9.5 0.56-14.8 17.592-11.91 32.341-26.537 44.019-43.447l0.361-0.553c4.94-7.36 12-11.84 12.68 5.68 1.24 30.7 8.48 76 38.9 92.54 47.76 26 105.68-31.88 143.82 13.5s-33.18 186.48 43.040 228.84 116.24 10 141.64 83.7c0 0-12.5-42.26-62.4-48.88 0 0-67.3-6.32-94-28-80-65.2-14.62-180.6-53.36-217.22-21.48-20.32-113.46 29.56-149.62-4.18-33.22-31.060-24.2-42.7-65.64-67.16zM355.88 523.62c-20 6-44.32-1.64-63.82-31.2s-33.4-60.36-16.9-80.54c16-19.7 70.54-2.58 90.18 11.84 13.8 10.12 31.7 31.36 29.2 53.8-3.46 30.94-30.54 43.66-38.66 46.1zM441.88 540.020c18.96 19.68 12.98 69.28 24.4 80.96 20.58 21.080 70.4-17.78 100.22 30.88 10.9 17.8 16 50 16 50 1.952 15.925 12.723 28.916 27.211 34.051l0.289 0.089c-40.92-13.38-23.44-35.82-47.52-77.52s-80.7-2.74-106.12-23.42-14.68-51.52-29.48-77.68c-9.44-16.66-34.52-20.26-51.48-20.68-9.68-0.24-7.28-4.16-3.26-6.94 9.547-6.783 17.531-15.060 23.787-24.575l0.213-0.345c0.766-1.586 2.362-2.661 4.209-2.661 1.671 0 3.137 0.88 3.959 2.201l0.011 0.020c13.8 22.66 20.14 17.6 37.56 35.6z" />
<glyph unicode="&#xe930;" d="M187.7 288.82c-1.477 4.339-2.351 9.339-2.4 14.537v282.843c0.030 25.803 20.373 46.845 45.896 47.996l0.104 0.004v15.6c0 0.030 0 0.065 0 0.1 0 26.51 21.49 48 48 48 0 0 0 0 0 0h129.5c0 0 0 0 0 0 26.51 0 48-21.49 48-48 0-0.035 0-0.070 0-0.105v0.005-15.48h283.6c26.467-0.057 47.9-21.525 47.9-48 0-0.042 0-0.084 0-0.127v0.007-48.58h-488c-11.56 0-23.4-9.64-25.86-21.060l-64.3-298.88z" />
<glyph unicode="&#xe931;" d="M227.26 198.1c-0.343-0.014-0.745-0.022-1.149-0.022-16.756 0-30.34 13.584-30.34 30.34 0 2.731 0.361 5.377 1.037 7.894l-0.049-0.212 61.12 284c4 18.96 23.12 34.38 42.42 34.38h507.080c0.35 0.015 0.762 0.023 1.175 0.023 16.745 0 30.32-13.575 30.32-30.32 0-2.738-0.363-5.392-1.043-7.915l0.049 0.212-61.1-284c-4-18.96-23.1-34.36-42.42-34.36z" />
<glyph unicode="&#xe932;" d="M582 388.38l-4.6-22c-1.285-5.266-5.858-9.152-11.376-9.379l-0.024-0.001h-37l-7.76-37c-1.287-5.25-5.837-9.127-11.333-9.379l-0.027-0.001h-22c-0.085-0.003-0.185-0.005-0.285-0.005-4.098 0-7.42 3.322-7.42 7.42 0 0.699 0.097 1.376 0.278 2.018l-0.013-0.052 7.76 37.080h-37.060c-0.079-0.003-0.172-0.005-0.265-0.005-4.098 0-7.42 3.322-7.42 7.42 0 0.699 0.097 1.376 0.277 2.017l-0.013-0.052 4.62 22c1.275 5.257 5.832 9.141 11.335 9.379l0.025 0.001h37.080l7.78 37.080c1.275 5.257 5.832 9.141 11.335 9.379l0.025 0.001h22c0.081 0.003 0.176 0.005 0.271 0.005 4.087 0 7.4-3.313 7.4-7.4 0-0.707-0.099-1.39-0.284-2.037l0.013 0.052-7.76-37.080h37.080c0.076 0.003 0.165 0.004 0.254 0.004 4.087 0 7.4-3.313 7.4-7.4 0-0.736-0.107-1.446-0.307-2.117l0.013 0.052zM818.5 520.72l-61.040-284.1c-2.16-10-12.96-18.78-23.1-18.78h-507.1c-0.167-0.009-0.363-0.013-0.559-0.013-3.513 0-6.664 1.548-8.809 4l-0.012 0.014c-1.394 1.916-2.231 4.316-2.231 6.911 0 1.099 0.15 2.163 0.431 3.172l-0.020-0.083 61.12 284.16c2.14 10 12.94 18.78 23.12 18.78h507.080c0.164 0.008 0.357 0.013 0.551 0.013 3.516 0 6.67-1.548 8.818-3.999l0.012-0.013c1.396-1.923 2.233-4.331 2.233-6.934 0-1.105-0.151-2.175-0.433-3.19l0.020 0.084zM533.64 476.72c-54.88 0-108.66-44.48-120.14-99.32s23.74-99.4 78.5-99.4 108.64 44.5 120.14 99.34-23.58 99.36-78.42 99.36zM300.3 557.36h468.16v28.84c0 0.012 0 0.026 0 0.041 0 15.581-12.575 28.226-28.129 28.339h-303.351v35.22c0 0 0 0 0 0.001 0 15.6-12.595 28.257-28.17 28.359h-129.69c-15.574-0.102-28.16-12.751-28.16-28.339 0-0.007 0-0.014 0-0.022v0.001-35.22h-17.72c-15.583-0.091-28.18-12.744-28.18-28.34 0-0.014 0-0.028 0-0.043v0.002-282.82c0.051-3.099 0.589-6.056 1.54-8.82l-0.060 0.2 48.6 226c4.42 20.52 24.24 36.6 45.16 36.6z" />
<glyph unicode="&#xe933;" d="M465.52 145.62c-0.006 0-0.013 0-0.020 0-32.84 0-59.466 26.605-59.5 59.437v136.943h-136.94c-32.818 0.034-59.414 26.623-59.46 59.436v93.004c0 0.012 0 0.026 0 0.040 0 32.851 26.614 59.486 59.457 59.52h136.943v136.96c0.046 32.805 26.633 59.386 59.437 59.42h92.963c0.030 0 0.065 0 0.1 0 32.833 0 59.454-26.594 59.5-59.416v-136.964h137.020c32.818-0.034 59.414-26.623 59.46-59.436v-93.004c0-0.012 0-0.026 0-0.040 0-32.872-26.648-59.52-59.52-59.52-0.007 0-0.014 0-0.021 0h-136.939v-137c-0.046-32.805-26.633-59.386-59.437-59.42h-0.003z" />
<glyph unicode="&#xe934;" d="M754.94 534.18h-156.76v156.78c-0.057 21.892-17.788 39.623-39.675 39.68h-92.985c-21.892-0.057-39.623-17.788-39.68-39.675v-156.765h-156.78c-21.891-0.068-39.621-17.79-39.7-39.672v-93.008c0.068-21.898 17.802-39.632 39.693-39.7h156.787v-156.74c0.057-21.892 17.788-39.623 39.675-39.68h92.965c21.892 0.057 39.623 17.788 39.68 39.675v156.725h156.78c21.898 0.068 39.632 17.802 39.7 39.693v93.007c-0.079 21.89-17.809 39.612-39.693 39.68h-0.007z" />
<glyph unicode="&#xe935;" d="M651.38 110.8c-1.18 0-2.16 0-2.92 0h-254.16c-14 0-25.4 5.74-31.38 15.78-4.3 7.2-7.52 19.28 1.48 36 7.231 12.877 16.367 23.772 27.169 32.726l0.191 0.154c-43.4 15.26-82 39.52-112.18 71.36l-16.78 17.66c-14.74 4.711-25.232 18.277-25.26 34.297v19.223c0 0 0 0 0 0 0 19.833 16.038 35.92 35.852 36h208.868c19.831-0.068 35.88-16.16 35.88-36 0 0 0 0 0 0v0-19.28c0-0.014 0-0.031 0-0.048 0-4.964-1.015-9.691-2.848-13.985l0.088 0.233c76.82 4.72 137.32 51.42 137.32 108.14 0 27.56-15.040 54.42-41.5 74.58-20.629 0.542-39.318 8.424-53.648 21.117l0.088-0.077-86.36-86.34c-8.568-8.647-20.446-14-33.575-14-0.044 0-0.088 0-0.132 0h0.007c-2.705 0.001-5.358 0.226-7.94 0.659l0.28-0.039c-1.37-3.666-3.413-6.795-6-9.38v0l-3.62-3.58c-4.707-4.714-11.213-7.631-18.4-7.631-7.118 0-13.567 2.86-18.262 7.494l-38.837 38.837c-4.696 4.734-7.598 11.253-7.598 18.45s2.902 13.716 7.6 18.452l-0.002-0.002 3.42 3.46c2.861 2.843 6.364 5.043 10.272 6.365l0.188 0.055c-0.26 1.871-0.409 4.033-0.409 6.23 0 13.136 5.314 25.031 13.91 33.651l215.519 215.499c8.583 8.647 20.475 14 33.617 14 0.036 0 0.073 0 0.109 0h-0.006c1.891-0.002 3.754-0.111 5.586-0.321l-0.226 0.021c1.088 6.599 4.146 12.346 8.541 16.761l8.799 8.799c5.581 5.583 13.292 9.036 21.81 9.036s16.229-3.453 21.81-9.036l37.020-37.020c5.535-5.588 8.955-13.28 8.955-21.77s-3.42-16.182-8.957-21.772l0.002 0.002-8.76-8.9c-4.168-4.207-9.555-7.2-15.586-8.408l-0.194-0.032c0.296-1.997 0.465-4.301 0.465-6.645 0-13.177-5.345-25.105-13.985-33.735v0l-10-10c10.166-11.476 17.278-25.878 19.932-41.788l0.068-0.492c57.14-44.54 89.68-106.86 89.68-172.42 0-89.060-59.56-166.78-147.28-207.020 20-13.16 35.14-29.5 44-48l0.38-0.78 0.32-0.8c6-15.7 1.1-26.6-2.4-31.72-6.24-9.1-16.9-14.12-30-14.12z" />
<glyph unicode="&#xe936;" d="M495.58 318.82c0-0.006 0-0.013 0-0.020 0-7.356-5.964-13.32-13.32-13.32 0 0 0 0 0 0h-208.86c-7.367 0-13.34 5.973-13.34 13.34v0 19.18c0.011 7.359 5.98 13.32 13.34 13.32 0 0 0 0 0 0h208.86c7.356 0 13.32-5.964 13.32-13.32v0zM408 415.58c0.638 0.637 1.032 1.517 1.032 2.49s-0.394 1.853-1.032 2.49l-38.68 38.68c-0.639 0.616-1.51 0.996-2.47 0.996s-1.831-0.38-2.471-0.997l0.001 0.001-3.56-3.6c-0.63-0.633-1.020-1.506-1.020-2.47s0.39-1.837 1.020-2.47v0l38.6-38.7c0.635-0.626 1.507-1.012 2.47-1.012s1.835 0.386 2.47 1.013v0zM662.78 148.46c-8.98 18.82-26.74 35.12-50.12 46.96-32.567-11.724-70.146-18.501-109.308-18.501-0.278 0-0.557 0-0.835 0.001h0.043c-0.066 0-0.144 0-0.222 0-29.713 0-58.534 3.823-85.997 11.004l2.359-0.524c-15.2-10-27.1-22-34.44-35.52-11-20.38 11.52-18.46 11.52-18.46h253.56s20.080-2.14 13.44 15.040zM708.78 711.36c1.491 1.5 2.412 3.567 2.412 5.85s-0.921 4.35-2.413 5.85v0l-37 37.060c-1.496 1.5-3.564 2.429-5.85 2.429s-4.354-0.928-5.85-2.428v0l-8.74-8.74c-1.497-1.501-2.422-3.572-2.422-5.86s0.925-4.359 2.422-5.86v0l37.020-37.020c1.496-1.5 3.564-2.429 5.85-2.429s4.354 0.928 5.85 2.428v0zM528.78 572.18c0 0.018 0 0.038 0 0.059 0 46.613 37.787 84.4 84.4 84.4 17.273 0 33.334-5.189 46.71-14.093l-0.31 0.194 11.020 11.040c4.549 4.543 7.363 10.823 7.363 17.76s-2.814 13.217-7.363 17.76v0l-31.56 31.58c-4.543 4.549-10.823 7.363-17.76 7.363s-13.217-2.814-17.76-7.363v0l-215.44-215.44c-4.54-4.548-7.347-10.826-7.347-17.76s2.807-13.212 7.347-17.76v0l31.58-31.56c4.538-4.553 10.815-7.37 17.75-7.37s13.212 2.817 17.749 7.369l87.521 87.501c-8.624 12.98-13.76 28.925-13.76 46.070 0 0.095 0 0.19 0 0.285v-0.015zM613.4 634c-34.242 0-62-27.758-62-62s27.758-62 62-62c34.242 0 62 27.758 62 62 0 0.035 0 0.070 0 0.105v-0.005c-0.057 34.199-27.793 61.9-62 61.9 0 0 0 0 0 0v0zM614.9 606c0.557-3.574 0.897-7.728 0.94-11.954v-60.766c-0.026-7.015-0.877-13.819-2.462-20.335l0.122 0.595c37.76-24 61.76-60.1 61.76-100.44 0-72.4-77.34-131.1-172.74-131.1-3.82 0-7.6 0.16-11.36 0.34h-195.16c47.82-50.38 122.54-82.88 206.62-82.88 144.36 0 261.38 95.66 261.38 213.66 0 85.16-60.98 158.64-149.1 193z" />
<glyph unicode="&#xe937;" d="M661.080 123.1c-28.66 0-53.12 10.86-69.58 20.86-23.156-12.62-50.717-20.040-80.010-20.040-30.609 0-59.325 8.102-84.122 22.278l0.832-0.438c-16.42-8.62-43.1-19.26-74.54-19.26-0.028 0-0.061 0-0.094 0-12.047 0-23.73 1.561-34.857 4.493l0.951-0.213c-27.46 7.060-53.42 30.3-69.42 62.22-10.637 21.024-16.867 45.832-16.867 72.096 0 22.527 4.583 43.983 12.868 63.488l-0.401-1.064c11.64 28.42 16.76 51.32 21.7 73.46 7.86 35.16 15.28 68.38 46 111.9l6.14 8.72-55.8 111.28c-11.78 25.1-2.34 50 23.78 64.14 10.16 6.12 128.18 76 218.9 76 92.76 0 214-73.080 219.14-76.2 37.88-24.56 27.56-54.64 23.52-63.28l-53.18-106 7.24-12.34c28.34-49.2 53.4-123.7 57.82-137.2 9.56-18 68.7-138.34-12.64-216.68-26.34-25.34-55.74-38.22-87.38-38.22z" />
<glyph unicode="&#xe938;" d="M345.74 519.9c6.58-14 24.38-22.84 39.54-19.56 0 0 67.48 14.66 121.26 14.66s120.98-14.58 120.98-14.58c15.16-3.28 32.96 5.54 39.54 19.58l61.72 123.040c6.58 14-1.020 25.46-14.8 34.42 0 0-120 72.9-207.42 72.9s-207.72-72.96-207.72-72.96c-15.74-8.36-21.38-20.36-14.82-34.4zM732.82 177.58c-59.36-57.16-118.62-23.32-140.38-7.080-22.826-15.049-50.824-24.008-80.914-24.008-31.006 0-59.791 9.512-83.596 25.777l0.51-0.329c-12.92-8.36-54.82-31.74-103.12-19.32-46.72 12-90.16 89.14-58.54 166.34 30.96 75.62 18.44 114.6 65.2 180.9 2.324-2.874 4.8-5.432 7.485-7.756l0.075-0.064c1-0.86 2-1.7 3-2.46 0.68-0.52 1.38-1.020 2-1.5 1.2-0.84 2.42-1.64 3.66-2.4 0.64-0.38 1.3-0.74 2-1.1 1.34-0.72 2.7-1.42 4.1-2 0.66-0.32 1.34-0.58 2-0.86 1.4-0.58 2.82-1.1 4.26-1.6 5.402-1.853 11.628-2.941 18.102-2.98h0.018c0.269-0.006 0.586-0.009 0.904-0.009 3.716 0 7.329 0.441 10.79 1.273l-0.314-0.064c40.32 10.28 111.72 14.14 116.46 14.14 50.56 0 115.54-14 116.2-14 3.401-0.75 7.307-1.18 11.313-1.18 0.009 0 0.019 0 0.028 0h-0.001c9.658 0.061 18.755 2.404 26.797 6.517l-0.337-0.157c2.383 1.185 4.347 2.315 6.24 3.546l-0.24-0.146 0.24 0.14c2.080 1.36 3.86 2.676 5.563 4.083l-0.103-0.083 0.34 0.3c1.686 1.425 3.212 2.863 4.658 4.377l0.022 0.023 0.62 0.64c1.288 1.393 2.539 2.892 3.714 4.452l0.106 0.148c0.7 0.94 1.46 1.8 2 2.76 29.8-51.58 56.58-134.76 56.58-134.76s67.2-119.68-7.44-191.56z" />
<glyph unicode="&#xe939;" d="M511.8 170.24c86.78 0 157.86 88.5 164.58 200.96-9.521 10.849-17.673 23.244-23.975 36.68l-0.405 0.96c-98-1.18-147.52 64.14-159.84 83.16l-8.36-0.46c-41.76-45.18-116.24-83.82-136.88-94 0-2.98-0.38-5.88-0.38-8.88 0.080-120.66 74.040-218.42 165.26-218.42z" />
<glyph unicode="&#xe93a;" d="M331.34 661.1c-11.84-6.58-18.36-13.68-12.58-26.72l45.88-90c6.88-14.36 14.84-20.74 33.62-15.2 0 0 62.46 12.56 108.2 12.56s108.56-12.16 108.56-12.16c20.54-4 27.32 0.78 33.62 15.2l45.36 89.64c7.36 13.22 2 17.62-12.6 26.7 0 0-100.48 63.3-174.88 63.3s-175.18-63.32-175.18-63.32zM524.48 677.1v-33.1h33.16c4.635-0.011 8.389-3.765 8.4-8.399v-19.601c-0.011-4.635-3.765-8.389-8.399-8.4h-33.161v-33.16c0 0 0 0 0 0 0-4.661-3.779-8.44-8.44-8.44-0.014 0-0.028 0-0.042 0h-19.658c-4.635 0.011-8.389 3.765-8.4 8.399v33.141h-33.1c-4.63 0.023-8.377 3.77-8.4 8.398v19.682c0.023 4.63 3.77 8.377 8.398 8.4h33.162v33.16c0.011 4.635 3.765 8.389 8.399 8.4h19.601c0.018 0 0.039 0 0.060 0 4.643 0 8.409-3.758 8.42-8.399v-0.001z" />
<glyph unicode="&#xe93b;" d="M665.82 699.6h-24v1.48h-35.82c-11.16 42.329-49.099 73.034-94.21 73.034s-83.050-30.705-94.058-72.355l-0.152-0.678h-35.42v-1.48h-24c-55.44 0-100.54-43.44-100.54-96.86v-384.34c0-53.2 45.12-96.48 100.54-96.48h307.66c55.44 0 100.54 43.28 100.54 96.48v384.34c0 53.42-45.1 96.86-100.54 96.86zM512 710.16c0.006 0 0.013 0 0.020 0 7.522 0 13.62-6.098 13.62-13.62s-6.098-13.62-13.62-13.62c-7.522 0-13.62 6.098-13.62 13.62 0 0 0 0 0 0v0c-0.001 0.048-0.001 0.104-0.001 0.161 0 7.434 6.026 13.46 13.46 13.46 0.050 0 0.099 0 0.149-0.001h-0.008z" />
<glyph unicode="&#xe93c;" d="M622 681.34h-33c-2.439 40.773-36.101 72.916-77.27 72.916s-74.831-32.143-77.26-72.702l-0.010-0.214h-32.46v-100.38h220zM512 663.18c-0.006 0-0.013 0-0.020 0-18.424 0-33.36 14.936-33.36 33.36s14.936 33.36 33.36 33.36c18.424 0 33.36-14.936 33.36-33.36v0c0-0.042 0-0.091 0-0.14 0-18.347-14.873-33.22-33.22-33.22-0.042 0-0.085 0-0.127 0h0.007zM746.62 602.76v-384.36c0-42.26-36.32-76.74-80.8-76.74h-307.64c-44.5 0-80.8 34.48-80.8 76.74v384.34c0 42.26 36.3 77.1 80.8 77.1h23.48v-58.94h-15.66c-15.529-0.079-28.089-12.681-28.1-28.219v-362.141c0.011-15.535 12.573-28.132 28.094-28.2h292.006c15.531 0.068 28.097 12.663 28.12 28.198v362.162c-0.011 15.546-12.582 28.152-28.114 28.22h-14.986v58.94h22.76c44.5 0 80.84-34.86 80.84-77.12zM657.74 243.38h-288.4v9.74h288.4zM657.74 355.38h-288.4v9.74h288.4zM657.74 470.34h-288.4v9.74h288.4zM458.5 547.8l-43.18-58s0 0-0.14-0.12l-2.66-3.6c-0.854-1.156-2.212-1.898-3.743-1.898-1.056 0-2.029 0.352-2.808 0.946l0.011-0.008-36 26.96c-1.144 0.871-1.875 2.233-1.875 3.767 0 1.051 0.344 2.022 0.924 2.806l-0.009-0.013 8.38 11.3c0.863 1.147 2.221 1.882 3.751 1.882 1.050 0 2.020-0.346 2.801-0.93l-0.012 0.009 21.1-15.78 34.76 46.88c0.858 1.152 2.217 1.89 3.747 1.89 1.053 0 2.024-0.349 2.805-0.938l-0.012 0.009 11.22-8.44c1.165-0.87 1.911-2.244 1.911-3.793 0-1.083-0.365-2.082-0.979-2.878l0.008 0.011zM458.5 432.86l-43.18-58s0 0-0.14-0.12l-2.66-3.6c-0.863-1.147-2.221-1.882-3.751-1.882-1.050 0-2.020 0.346-2.801 0.93l-35.988 26.971c-1.144 0.871-1.875 2.233-1.875 3.767 0 1.051 0.344 2.022 0.924 2.806l-0.009-0.013 8.38 11.28c0.854 1.156 2.212 1.898 3.743 1.898 1.056 0 2.029-0.352 2.808-0.946l-0.011 0.008 21.1-15.78 34.8 46.7c0.854 1.156 2.212 1.898 3.743 1.898 1.056 0 2.029-0.352 2.808-0.946l-0.011 0.008 11.22-8.42c1.106-0.872 1.809-2.212 1.809-3.715 0-1.047-0.341-2.015-0.918-2.798l0.009 0.013zM458.5 323.72l-43.18-58s0 0-0.14-0.12l-2.66-3.6c-0.854-1.156-2.212-1.898-3.743-1.898-1.056 0-2.029 0.352-2.808 0.946l0.011-0.008-35.98 26.96c-1.144 0.871-1.875 2.233-1.875 3.767 0 1.051 0.344 2.022 0.924 2.806l-0.009-0.013 8.38 11.3c0.863 1.147 2.221 1.882 3.751 1.882 1.050 0 2.020-0.346 2.801-0.93l-0.012 0.009 21.1-15.78 34.8 46.7c0.858 1.152 2.217 1.89 3.747 1.89 1.053 0 2.024-0.349 2.805-0.938l-0.012 0.009 11.22-8.44c1.093-0.872 1.787-2.204 1.787-3.698 0-1.046-0.34-2.013-0.916-2.795l0.009 0.013z" />
<glyph unicode="&#xe93d;" d="M224.5 130c-0.006 0-0.013 0-0.020 0-8.012 0-15.259 3.274-20.477 8.557l-2.943 2.943c-5.245 5.251-8.49 12.501-8.49 20.51s3.244 15.259 8.49 20.51v0l51.38 51.32v117.020c0.131 17.070 7.092 32.488 18.28 43.68l244.76 244.7-5.080 5.080c-5.244 5.247-8.488 12.495-8.488 20.5s3.243 15.253 8.488 20.5l17.72 17.72c5.249 5.234 12.491 8.47 20.49 8.47s15.241-3.236 20.491-8.47l54.459-54.459c0.474 7.308 3.61 13.804 8.438 18.598l39.342 39.342-4.94 4.94c-5.224 5.253-8.453 12.494-8.453 20.49s3.229 15.237 8.454 20.491l5.019 5.019c5.251 5.245 12.501 8.49 20.51 8.49s15.259-3.244 20.51-8.49l110.56-110.54c5.249-5.245 8.496-12.493 8.496-20.5s-3.247-15.255-8.496-20.5v0l-5-5.040c-5.251-5.229-12.493-8.461-20.49-8.461s-15.239 3.233-20.491 8.462l0.001-0.001-5.24 5.12-39.34-39.36c-4.793-4.82-11.281-7.948-18.495-8.416l-0.085-0.004 52.66-52.66c5.25-5.248 8.498-12.5 8.498-20.51s-3.248-15.262-8.498-20.51l-17.68-17.68c-5.25-5.24-12.496-8.48-20.5-8.48s-15.25 3.24-20.5 8.48v0l-6.88 6.9-244-244c-11.639-11.38-27.391-18.596-44.822-19.217l-0.118-0.003h-115l-51.9-52c-5.21-5.274-12.441-8.541-20.436-8.541-0.065 0-0.129 0-0.194 0.001h0.010zM556.22 406l96.24 96.24-88.56 88.56-96.24-96.26z" />
<glyph unicode="&#xe93e;" d="M555.12 689.060c-1.676 1.66-3.983 2.686-6.53 2.686s-4.854-1.026-6.531-2.687l-17.719-17.719c-1.665-1.674-2.694-3.982-2.694-6.53s1.029-4.856 2.695-6.53v0l19.040-19.040-258.7-258.68c-7.588-7.629-12.331-18.095-12.5-29.668v-125.232l-57.18-57.12c-1.665-1.674-2.694-3.982-2.694-6.53s1.029-4.856 2.695-6.53v0l2.98-2.98c1.672-1.67 3.98-2.703 6.53-2.703s4.858 1.033 6.53 2.703v0l57.68 57.72h123.14c12.108 0.606 22.942 5.61 31.033 13.433l257.987 257.987 20.86-20.86c1.674-1.665 3.982-2.694 6.53-2.694s4.856 1.029 6.53 2.695v0l17.72 17.72c1.67 1.672 2.703 3.98 2.703 6.53s-1.033 4.858-2.703 6.53v0zM809 619.9l-5-5.040c-1.677-1.666-3.988-2.696-6.54-2.696s-4.863 1.030-6.54 2.697v0l-19.14 19.14-53.32-53.34c-1.675-1.671-3.987-2.704-6.54-2.704s-4.865 1.033-6.54 2.705v0l-59.38 59.48c-1.67 1.672-2.703 3.98-2.703 6.53s1.033 4.858 2.703 6.53v0l53.34 53.32-18.9 18.9c-1.66 1.676-2.686 3.983-2.686 6.53s1.026 4.854 2.687 6.531l4.999 4.999c1.672 1.67 3.98 2.703 6.53 2.703s4.858-1.033 6.53-2.703l110.6-110.56c1.628-1.664 2.633-3.945 2.633-6.46 0-2.565-1.045-4.886-2.733-6.56l-0.001-0.001z" />
<glyph unicode="&#xe93f;" d="M439.395 494.587l124.281 124.281 116.871-116.871-124.281-124.281-116.871 116.871z" />
<glyph unicode="&#xe940;" d="M405.133 460.567l10.386 10.375 40.567-40.609-10.386-10.375-40.567 40.609z" />
<glyph unicode="&#xe941;" d="M364.482 419.964l10.38 10.38 40.588-40.588-10.38-10.38-40.588 40.588z" />
<glyph unicode="&#xe942;" d="M323.887 379.394l10.384 10.377 40.574-40.602-10.384-10.377-40.574 40.602z" />
<glyph unicode="&#xe943;" d="M475 123.62c-35.873 0.011-64.954 29.072-65 64.936v71.604l-60-39.020c-9.98-6.557-22.214-10.458-35.358-10.458-22.702 0-42.686 11.639-54.31 29.274l-0.151 0.244-40.34 62c-6.538 9.974-10.428 22.194-10.428 35.323 0 22.704 11.633 42.691 29.265 54.325l0.244 0.151 86 55.9-86 55.9c-17.869 11.786-29.498 31.77-29.498 54.47 0 13.149 3.902 25.386 10.61 35.617l-0.152-0.247 40.32 62c11.766 17.939 31.783 29.622 54.529 29.622 13.108 0 25.31-3.88 35.52-10.555l-0.249 0.153 60-39.020v71.6c0.057 35.86 29.134 64.909 64.999 64.92h74.001c35.866-0.011 64.943-29.060 65-64.915v-71.605l60 39.020c9.978 6.553 22.208 10.453 35.349 10.453 22.708 0 42.696-11.645 54.32-29.288l0.151-0.244 40.32-62c6.553-9.982 10.452-22.216 10.452-35.361 0-22.706-11.635-42.694-29.269-54.328l-0.244-0.151-86-55.9 86-55.9c17.869-11.786 29.498-31.77 29.498-54.47 0-13.149-3.902-25.386-10.61-35.617l0.152 0.247-40.32-62c-11.731-17.878-31.683-29.52-54.354-29.52-0.065 0-0.131 0-0.196 0h0.010c-0.056 0-0.123 0-0.189 0-13.036 0-25.169 3.865-35.317 10.511l0.246-0.151-60 39.020v-71.6c-0.057-35.838-29.1-64.875-64.936-64.92h-0.004z" />
<glyph unicode="&#xe944;" d="M772.78 373.18l-115.12 74.82 115.12 74.82c11.65 7.701 19.229 20.741 19.229 35.552 0 8.574-2.54 16.554-6.909 23.23l0.1-0.162-40.32 62c-7.693 11.701-20.762 19.319-35.61 19.319-8.541 0-16.493-2.521-23.154-6.859l0.164 0.1-94.9-61.68v113.12c-0.068 23.374-19.004 42.303-42.375 42.36h-74.005c-23.376-0.057-42.312-18.986-42.38-42.353v-113.167l-94.9 61.72c-6.509 4.264-14.484 6.802-23.051 6.802-14.813 0-27.854-7.585-35.451-19.083l-0.098-0.159-40.34-62c-4.269-6.514-6.809-14.494-6.809-23.068 0-14.811 7.579-27.851 19.071-35.454l0.158-0.098 115.14-74.94-115.12-74.82c-11.65-7.701-19.229-20.741-19.229-35.552 0-8.574 2.54-16.554 6.909-23.23l-0.1 0.162 40.34-62c7.696-11.657 20.737-19.242 35.549-19.242 8.567 0 16.541 2.537 23.213 6.901l-0.162-0.1 94.9 61.68v-113.18c0.034-23.393 18.972-42.352 42.353-42.42h74.007c23.376 0.057 42.312 18.986 42.38 42.353v113.187l94.9-61.74c6.512-4.265 14.489-6.803 23.059-6.803 14.816 0 27.861 7.585 35.463 19.085l0.098 0.158 40.32 62c4.299 6.53 6.858 14.538 6.858 23.143 0 14.839-7.609 27.902-19.138 35.498l-0.16 0.099zM517.22 698c0.007 0 0.015 0 0.023 0 10.361 0 18.76-8.399 18.76-18.76 0-7.149-3.999-13.365-9.883-16.531l-0.1-0.049v-19.9c-1.928 0.79-4.192 1.442-6.54 1.851l-0.2 0.029c-3.187 0.42-6.871 0.66-10.612 0.66-0.087 0-0.174 0-0.261 0h0.013v17.36c-5.983 3.215-9.983 9.431-9.983 16.58 0 10.361 8.399 18.76 18.76 18.76 0.008 0 0.016 0 0.024 0h-0.001zM518 635.4c6.28-0.84 41.74-14.2 44.38-59.42 1.4-24.36-11.56-43.86-26.98-59.5v49.24c5.7 10.86 4.14 21.52-11.52 31.62 0 0-54.42-20-55.22 11.3s43.1 27.6 49.34 26.76zM526 583.4v-143.7c-6.519 4.744-12.263 9.605-17.63 14.85l0.030-0.030v128.88c5.58 1.12 10.54 2.46 14 3.5 1.336-1.062 2.516-2.217 3.569-3.481l0.031-0.039zM526 206.74c0-4.86-3.94-8.8-8.8-8.8s-8.8 3.94-8.8 8.8v0 15.26c4.294-1.551 9.251-2.513 14.413-2.659l0.067-0.001c1.15 0.048 2.225 0.156 3.281 0.321l-0.161-0.021zM491.24 240.74c-46.22 28.94-7.14 71.7-7.14 71.7s6.5 6.42 14.9 14.94v-49.38c-5.1-15.46 0-32.2 40.78-36.84 0.020 0.020-5.14-27.58-48.52-0.4zM508.4 262.74v128.68c3-2.28 5.76-4.36 8-6.14 3.638-2.619 6.788-5.584 9.51-8.912l0.070-0.088v-123.1c-11.44 3-15.88 7.080-17.56 9.68zM535.4 322.58v44.88c0.395 0.575 0.727 1.238 0.964 1.944l0.016 0.056c1.68 7.1-0.78 12.76-14.16 23.26s-42.22 30.5-52.74 46.42-20.92 45.2 9.22 73.24c6 5.64 13.14 11.34 20.32 17.12v-44.14c-6.26-5.42-10.36-9.86-10.26-13.56 0 0-8-15.34 51.48-53.16 47.040-29.9 16.88-73.14-4.82-95.96z" />
<glyph unicode="&#xe945;" d="M599.44 123.1c-8.048 0.251-15.199 3.888-20.112 9.527l-0.028 0.033-5.52 6.16-0.24 8.28c-0.18 1.74-2.54 18.62-28.64 29.38 4.843-8.334 7.892-18.253 8.375-28.84l0.005-0.14 0.96-23.48h-201.86l0.96 23.48c1.22 30 23.34 55.72 56.74 68v2c-40 17.9-75.6 42.84-78.34 75.52-2.48 29.7 21.22 54 70.44 72.48l8 2.96v24.68c-102 14.72-178.82 80.8-182 159.66l-0.96 23.48h212.64l-0.52 0.22c-15.502 6.271-27.252 19.018-32.039 34.794l-0.101 0.386c-4 13.34-4.7 34.72 13.76 60.86 46.32 65.66 105.48 100.36 171.040 100.36 4.72 0 9.52-0.18 14.36-0.54 81.9-6.16 193.3-79.82 189.48-202.14-4.3-137.68-95.040-220-294.2-266.68l-5.16-1.2v-42.54l2.98-0.96c60.7-19.36 123.46-39.4 124.54-107.72 0.14-8.62-2.38-15.64-7.48-20.82-4.338-4.444-10.387-7.2-17.081-7.2-0.021 0-0.042 0-0.063 0h0.003zM679.44 576.3l-0.96-23.48c-1.8-44.46-27.020-84.86-66.94-114.28 16 7.58 22.62 12.16 24.76 13.78l2.56 3.84 2.68 0.16c2.22 1.32 57.22 34.88 55.78 114.22-1.76 96.28-99.1 101.3-103.24 101.46h-2.72c-31.8 0-71.74-22.42-80.8-58.66-2.994-12.716-10.127-23.436-19.872-30.925l-0.128-0.095-8.14-6z" />
<glyph unicode="&#xe946;" d="M432.66 413.38c-100.42 7.28-179.060 67.020-182 140.34h405.34c-3-73.32-81.64-133.060-182-140.34v-146.2c-7.66 2.6-15.28 5.28-22.76 8.2-7.577 2.903-13.684 5.674-19.612 8.745l1.072-0.505v129.76zM503.68 186.9c-28.384 6.684-52.103 14.016-75.144 22.728l4.124-1.368v-9.86c-32-6.34-55.76-27.040-56.76-51.82h154.84c-0.74 16.14-11.080 30.5-27.060 40.32zM442.98 254.36c-56 21.86-49.76 38-32.9 48v42c-133.56-50-1.28-116.62 118.92-139.86 65.88-12.76 67.1-56.78 67.1-56.78s5.52-6.18 5.38 3.060c-1.060 66.86-83.92 74.44-158.5 103.58zM604.7 749.86c-68.82 5.16-124-31.82-165.3-90.32-22.22-31.46-9.72-54.76 8.44-62.12 2.851 5.868 8.766 9.842 15.61 9.842 5.588 0 10.557-2.649 13.72-6.761l0.030-0.041c5.762 4.503 9.897 10.853 11.521 18.149l0.039 0.211c12 48.18 63.3 77.42 106.32 75.7s123.18-28.96 124.9-123.6-67.1-134.2-67.1-134.2-18.88-21.34-156.36-65.32v-46c222.5 52.24 273.58 142.86 276.8 245.42 3.42 110.2-99.8 173.86-168.62 179.040z" />
<glyph unicode="&#xe947;" d="M226.4 118.56c-25.001 0.009-45.264 20.278-45.264 45.28 0 12.505 5.069 23.826 13.264 32.020l86.68 86.68v93.2c0.124 17.071 7.086 32.492 18.28 43.68l317.8 317.78c0.537 0.662 1.080 1.255 1.655 1.816l0.005 0.004c23.844 24.321 57.040 39.397 93.757 39.397 72.493 0 131.26-58.767 131.26-131.26 0-36.718-15.076-69.914-39.376-93.736l-0.022-0.021c-0.8-0.76-1.5-1.4-2.22-2-37.42-37.4-304.36-304.4-316.74-316.8-11.645-11.383-27.404-18.6-44.843-19.217l-0.117-0.003h-98.52l-83.54-83.54c-8.154-8.191-19.439-13.26-31.908-13.26-0.032 0-0.065 0-0.097 0h0.005z" />
<glyph unicode="&#xe948;" d="M806.34 587.5c-4.732-7.617-9.976-14.222-15.885-20.165l0.005 0.005c-0.72-0.7-1.5-1.32-2.22-2l-316.74-316.78c-8.078-7.81-18.912-12.814-30.906-13.415l-0.114-0.005h-106.7l-89.34-89.34c-4.623-4.611-11.004-7.462-18.050-7.462-14.117 0-25.562 11.444-25.562 25.562 0 7.071 2.871 13.472 7.511 18.099l91.241 91.241c0.368 0.352 0.766 0.681 1.188 0.978l0.032 0.022v101.5c0.169 11.605 4.912 22.071 12.502 29.702l317.838 317.778c0.56 0.6 1.040 1.24 1.64 1.82 5.943 5.897 12.554 11.135 19.707 15.586l0.473 0.274zM818.22 613.5c3.107 9.775 4.898 21.017 4.898 32.678 0 61.558-49.902 111.46-111.46 111.46-11.661 0-22.903-1.791-33.468-5.112l0.79 0.214z" />
<glyph unicode="&#xe949;" d="M765.86 583.56l-116.86 116.86-320.54-320.42v-112.48h121.54v0.26l270.8 270.7zM631.64 508.34l-194-194c-17.38-17.38-44.54-18.38-60.68-2.26-14.8 14.8-15 38.8-1.56 56l24.6-24.48 10.6 10.6-25 24.94 33.7 33.7 24.94-24.84 10.6 10.6-24.84 24.84 33.7 33.7 24.94-24.94 10.6 10.6-25.040 24.96 33.8 33.7 24.94-24.94 10.6 10.6-25.020 24.88 33.7 33.7 24.94-24.94 10.6 10.6-24.94 24.94 10.38 10.38c1.213 1.139 2.517 2.228 3.883 3.237l0.117 0.083 57.74-57.74c-1.097-1.459-2.179-2.743-3.324-3.966l0.024 0.026z" />
<glyph unicode="&#xe94a;" d="M622.64 142.1c-98.345 0.067-178.043 79.806-178.043 178.16 0 98.395 79.765 178.16 178.16 178.16s178.16-79.765 178.16-178.16c0-37.271-11.445-71.869-31.011-100.471l0.395 0.611c-32.3-47.506-86.097-78.301-147.087-78.301-0.202 0-0.403 0-0.605 0.001h0.031z" />
<glyph unicode="&#xe94b;" d="M711.603 451.361c72.44-49.046 91.405-147.53 42.36-219.97s-147.53-91.405-219.97-42.36c-72.44 49.046-91.405 147.53-42.36 219.97s147.53 91.405 219.97 42.36z" />
<glyph unicode="&#xe94c;" d="M747.72 222.96c2.119 2.576 4.237 5.452 6.203 8.437l0.237 0.383c2.24 3.32 4.44 6.88 6.46 10.46l-261.060 176.16c-5.436-5.072-9.79-11.228-12.728-18.132l-0.132-0.348z" />
<glyph unicode="&#xe94d;" d="M363.8 142.1c-0.091 0-0.2 0-0.308 0-31.191 0-59.419 12.684-79.808 33.176l-54.345 54.345c-20.474 20.522-33.133 48.848-33.133 80.13s12.66 59.608 33.136 80.132l330.818 330.838c20.509 20.502 48.839 33.183 80.13 33.183s59.621-12.681 80.13-33.183l54.36-54.36c20.474-20.522 33.133-48.848 33.133-80.13s-12.66-59.608-33.136-80.132l-330.778-330.798c-20.393-20.496-48.621-33.18-79.812-33.18-0.108 0-0.217 0-0.325 0h0.017z" />
<glyph unicode="&#xe94e;" d="M430 189.26c-16.931-16.933-40.323-27.406-66.16-27.406s-49.229 10.473-66.16 27.406l-54.38 54.34c-16.934 16.935-27.408 40.329-27.408 66.17s10.474 49.235 27.408 66.17l330.82 330.82c16.934 16.928 40.324 27.398 66.16 27.398s49.227-10.47 66.16-27.398l54.36-54.36c16.934-16.935 27.408-40.329 27.408-66.17s-10.474-49.235-27.408-66.17v0z" />
<glyph unicode="&#xe94f;" d="M737.9 629.28l-56.12 56.12c-11.093 11.090-26.415 17.949-43.34 17.949s-32.247-6.859-43.34-17.949l-162.82-162.8c0-0.1-0.16-0.22-0.28-0.34l142.74-142.74 0.34 0.28 162.8 162.82c11.095 11.090 17.957 26.414 17.957 43.34 0 16.916-6.854 32.232-17.937 43.32v0z" />
<glyph unicode="&#xe950;" d="M270.2 296c-9.74 15.88-6.74 29.34 13.52 49.62l165.3 165.32-14.2 14.2s-0.2-0.14-0.28-0.24l-175.080-175.080c-9.385-9.406-15.189-22.389-15.189-36.728 0-12.152 4.168-23.33 11.153-32.182l-0.084 0.11c8.5-8.58 24.26-0.2 14.86 14.98z" />
<glyph unicode="&#xe951;" d="M689.62 150.38c-0.097 0-0.211 0-0.326 0-33.029 0-62.921 13.434-84.509 35.135l-92.785 92.785-92.78-92.78c-21.823-22.404-52.284-36.301-85.992-36.301-66.274 0-120 53.726-120 120 0 33.712 13.902 64.177 36.285 85.976l92.806 92.806-92.78 92.78c-22.41 21.824-36.312 52.289-36.312 86.001 0 66.274 53.726 120 120 120 33.707 0 64.168-13.898 85.966-36.275l0.025-0.026 92.78-92.8 92.78 92.78c21.593 21.029 51.126 33.999 83.688 33.999 66.274 0 120-53.726 120-120 0-32.567-12.973-62.104-34.034-83.725l0.025 0.026-92.76-92.76 92.76-92.78c21.708-21.714 35.134-51.709 35.134-84.84 0-66.265-53.711-119.985-119.973-120h-0.002z" />
<glyph unicode="&#xe952;" d="M263.48 554.74c-18.279 18.163-29.593 43.317-29.593 71.113 0 55.361 44.879 100.24 100.24 100.24 27.797 0 52.951-11.314 71.108-29.588l92.765-92.785-141.72-141.72zM667.72 434l-141.72-141.72 92.78-92.78c18.163-18.279 43.317-29.593 71.113-29.593 55.361 0 100.24 44.879 100.24 100.24 0 27.797-11.314 52.951-29.588 71.108l-0.005 0.005zM760.5 554.7c18.14 18.14 29.359 43.2 29.359 70.88s-11.22 52.74-29.359 70.88v0c-18.142 18.135-43.201 29.351-70.88 29.351s-52.738-11.216-70.88-29.351l-355.26-355.22c-18.14-18.14-29.359-43.2-29.359-70.88s11.22-52.74 29.359-70.88v0c18.142-18.135 43.201-29.351 70.88-29.351s52.738 11.216 70.88 29.351v0z" />
<glyph unicode="&#xe953;" d="M449.28 449.78c0-7.809-6.331-14.14-14.14-14.14s-14.14 6.331-14.14 14.14c0 7.809 6.331 14.14 14.14 14.14s14.14-6.331 14.14-14.14z" />
<glyph unicode="&#xe954;" d="M486.82 487.32c0-7.809-6.331-14.14-14.14-14.14s-14.14 6.331-14.14 14.14c0 7.809 6.331 14.14 14.14 14.14v0c7.809 0 14.14-6.331 14.14-14.14v0z" />
<glyph unicode="&#xe955;" d="M524.38 524.84c0-7.809-6.331-14.14-14.14-14.14s-14.14 6.331-14.14 14.14c0 7.809 6.331 14.14 14.14 14.14s14.14-6.331 14.14-14.14z" />
<glyph unicode="&#xe956;" d="M488.6 410.46c0-7.809-6.331-14.14-14.14-14.14s-14.14 6.331-14.14 14.14c0 7.809 6.331 14.14 14.14 14.14v0c7.809 0 14.14-6.331 14.14-14.14v0z" />
<glyph unicode="&#xe957;" d="M526.14 448c0-7.809-6.331-14.14-14.14-14.14s-14.14 6.331-14.14 14.14c0 7.809 6.331 14.14 14.14 14.14s14.14-6.331 14.14-14.14z" />
<glyph unicode="&#xe958;" d="M563.68 485.54c0-7.809-6.331-14.14-14.14-14.14s-14.14 6.331-14.14 14.14c0 7.809 6.331 14.14 14.14 14.14v0c7.809 0 14.14-6.331 14.14-14.14v0z" />
<glyph unicode="&#xe959;" d="M527.9 371.16c0-7.809-6.331-14.14-14.14-14.14s-14.14 6.331-14.14 14.14c0 7.809 6.331 14.14 14.14 14.14s14.14-6.331 14.14-14.14z" />
<glyph unicode="&#xe95a;" d="M565.46 408.7c-0.011-7.801-6.338-14.12-14.14-14.12-7.809 0-14.14 6.331-14.14 14.14s6.331 14.14 14.14 14.14v0c0 0 0 0 0 0 7.809 0 14.14-6.331 14.14-14.14 0-0.007 0-0.014 0-0.021v0.001z" />
<glyph unicode="&#xe95b;" d="M603 446.24c0-7.809-6.34-14.14-14.16-14.14s-14.16 6.331-14.16 14.14c0 7.809 6.34 14.14 14.16 14.14s14.16-6.331 14.16-14.14z" />
<glyph unicode="&#xe95c;" d="M368.355 421.865l13.826 13.836 115.299-115.218-13.826-13.836-115.299 115.218z" />
<glyph unicode="&#xe95d;" d="M523.859 577.396l13.826 13.836 115.299-115.218-13.826-13.836-115.299 115.218z" />
<glyph unicode="&#xe95e;" d="M682.4 118.86c-0.022 0-0.048 0-0.075 0-53.097 0-96.14 43.043-96.14 96.14 0 2.259 0.078 4.5 0.231 6.72l-0.017-0.3c-10.4-10.6-29.26-29.64-38.4-39.42-54.5-58.26-108.44-62.78-123.68-62.78-1.52 0-2.7 0-3.52 0-51.24 0.3-98.34 17.64-131.66 48.8-11.322 10.549-20.915 22.755-28.437 36.271l-0.383 0.749c-21.52 39.78-20 83.8 3.9 120.76 8 12.48 23.74 31.040 47.82 56.68v0l-0.26 0.3 2 2c-29.52 55.040-20.58 130.3-14.82 162.32 2.114 10.849 9.337 19.65 19.010 23.917l0.21 0.083c25.4 92 83.040 162.22 102.1 180.28 18.6 17.62 36 25.5 56.32 25.5 3.68 0 7.32-0.26 11-0.62 1.125-0.169 2.471-0.291 3.837-0.338l0.063-0.002h1.54c5.18 0 17.060 0 79.16-21.060 2.898 0.636 6.226 1 9.64 1v0c6.748-0.022 13.146-1.492 18.908-4.118l-0.288 0.118 15.4-6.8c16.557-7.428 27.881-23.768 27.881-42.753 0-9.68-2.944-18.673-7.986-26.132l0.105 0.165c1.413 1.245 2.959 2.447 4.576 3.554l0.164 0.106c7.057 4.514 15.665 7.195 24.899 7.195 16.544 0 31.078-8.607 39.369-21.587l0.112-0.188 8.96-14.2c4.462-6.991 7.111-15.514 7.111-24.656 0-0.902-0.026-1.798-0.077-2.687l0.006 0.123c45.24-76.9 43.88-102.44 43.42-111.020-1.74-33.24-18-57.78-32.96-70.14-48.26-49.12-106-85.42-167.56-105.54-4.643-9.388-12.908-16.392-22.921-19.257l-0.259-0.063c-23.404-7.056-50.333-11.259-78.197-11.559l-0.163-0.001c-43.42 0-74.72 12.12-94.82 23.82l-0.6-0.64c-26.64-28.46-35.64-40.44-38.62-45.040-8.7-13.42-8.98-27.86-0.8-42.94 14.76-27.3 52.98-45.76 95.12-46h2c3.82 0 32.74 1.28 67.68 38.64 14.22 15.2 47.4 48.48 47.72 48.8 15.727 14.233 36.684 22.944 59.676 22.944 0.29 0 0.579-0.001 0.868-0.004h-0.044c12.808-0.084 25.032-2.476 36.312-6.779l-0.712 0.239c13.39 7.461 29.367 11.866 46.37 11.9h0.010c53.143-0.034 96.21-43.123 96.21-96.27 0-53.168-43.102-96.27-96.27-96.27-0.021 0-0.042 0-0.063 0h0.003zM393.52 556.12c5.19-5.551 8.377-13.032 8.377-21.258 0-2.289-0.247-4.52-0.715-6.668l0.038 0.206c-4-17.64-15.12-77 10-104.34 9.12-10 25.22-14.92 48-14.92 20.808 0.433 40.72 3.501 59.657 8.883l-1.657-0.403c2.657 0.734 5.709 1.157 8.859 1.16h0.001c7.655-0.044 14.724-2.519 20.483-6.691l-0.103 0.071c51.997 18.925 96.254 48.189 132.151 85.546l0.109 0.114 0.7 0.72 3.44 2.96c0.88 0.9 4.96 5.6 5.5 15.46-0.62 5.6-10.96 30.36-32 66.5-8.926 3.789-16.207 10.002-21.209 17.814l-0.111 0.186-9.040 14.16c-4.523 7.074-7.209 15.701-7.209 24.956 0 9.669 2.932 18.652 7.955 26.111l-0.106-0.167c-7.966-6.537-18.258-10.505-29.477-10.52h-0.003c-6.801 0.004-13.257 1.477-19.070 4.118l0.29-0.118-15.38 6.76c-8.674 3.897-15.734 10.088-20.587 17.807l-0.113 0.193c-31.2 10.46-46 14.44-50.14 15.22h-0.56c-4 0-7.8 0.34-11.2 0.66l-2.14 0.22c-1.959-1.445-3.689-2.927-5.304-4.524l0.004 0.004c-11.14-10.54-57.68-66.5-79.42-140.2z" />
<glyph unicode="&#xe95f;" d="M718.92 216.2c0-19.993-16.207-36.2-36.2-36.2s-36.2 16.207-36.2 36.2c0 19.986 16.196 36.189 36.179 36.2h0.001c19.997 0 36.209-16.205 36.22-36.199v-0.001zM736.24 164.78c-13.483-14.403-32.612-23.378-53.837-23.378-40.692 0-73.68 32.988-73.68 73.68 0 12.504 3.115 24.28 8.61 34.595l-0.193-0.397c-25.2 8.82-39-4.18-39.18-4.34s-33.060-33.22-46.38-47.44c-52.48-56.1-102.3-56-109.62-55.58-46.8 0.3-88.8 16-117.34 42.74-9.579 8.93-17.694 19.263-24.056 30.705l-0.324 0.635c-17.44 32.26-16.34 67.86 3 97.7 8.3 12.78 26 32.9 45.34 53.5 7.032-7.91 14.16-15.171 21.63-22.069l0.21-0.191c-18.76-20-34.4-37.86-41.080-48.2-13.14-20.3-13.76-43.7-1.72-66 18.88-34.94 64-57.56 114.88-57.76h1.28c1.46 0 40.46-2 85.080 45.78 13.66 14.6 45.82 46.9 47.2 48.26s32.72 31.16 82.2 7.080c12.176 9.237 27.583 14.797 44.289 14.797 40.692 0 73.68-32.988 73.68-73.68 0-19.532-7.6-37.289-20.004-50.475l0.035 0.038zM732.24 216.2c-0.011 27.352-22.187 49.52-49.54 49.52-27.36 0-49.54-22.18-49.54-49.54 0-27.353 22.168-49.529 49.519-49.54h0.001c0.012 0 0.026 0 0.040 0 27.36 0 49.54 22.18 49.54 49.54 0 0.007 0 0.014 0 0.021v-0.001zM342.58 381.72l1.4-1.68c0.48-0.58 0.94-1.16 1.44-1.74 5.733-6.967 11.925-13.153 18.667-18.694l0.233-0.186c21.36-17.1 74.86-46.58 170.18-19.88 6.82 2 10.4 8.14 11.6 15.76 55.3 16.14 115.74 48.5 170 104.16 9.38 7.3 24.1 26 25.6 54.58 1.32 24.58-25.6 74-44.44 105.26 0.684 2.127 1.078 4.573 1.078 7.112 0 4.733-1.37 9.147-3.736 12.865l0.058-0.097-8.94 14.18c-4.344 6.801-11.853 11.246-20.4 11.246-13.324 0-24.126-10.801-24.126-24.126 0-4.777 1.388-9.23 3.784-12.977l-0.058 0.097 8.96-14.18c3.774-5.87 9.901-9.947 17.016-10.906l0.124-0.014c21.6-36.12 40.3-74.18 39.64-86.84-1.18-22-13.46-31.54-13.8-31.8l-2.16-1.86c-49.26-50.74-104.7-80.52-154.7-95.68-4.26 6.94-10.26 11.28-17.14 9.46-25.040-6.58-95.74-22.3-128.22 13s-20.84 100.98-15.46 124.54c1.2 5.36-3.86 10.3-11.42 13.88 20.1 83.14 72.42 149.22 89.62 165.48 12.3 11.7 16.88 11.24 25.16 10.42 2.793-0.34 6.028-0.534 9.307-0.534 0.525 0 1.049 0.005 1.571 0.015l-0.078-0.001c6.44-0.32 34.18-8.9 65.32-19.52 1.964-7.038 6.868-12.662 13.269-15.559l0.151-0.061 15.38-6.76c2.858-1.289 6.196-2.041 9.71-2.041 13.322 0 24.121 10.799 24.121 24.121 0 9.808-5.854 18.249-14.258 22.019l-0.153 0.061-15.36 6.78c-2.831 1.27-6.135 2.009-9.613 2.009-3.598 0-7.012-0.792-10.075-2.211l0.148 0.062c-33.24 11.42-68.64 22.56-79.3 22.2-0.22-0.004-0.481-0.006-0.741-0.006-2.249 0-4.463 0.155-6.63 0.454l0.251-0.028c-14.76 1.44-28.68 1.020-49.6-18.8-20.14-19.080-77.44-90.84-99.040-182.28-8.12-0.68-14.52-3.62-15.58-9.68-4.76-26.44-16.28-112.2 21.36-161.48z" />
<glyph unicode="&#xe960;" d="M218.46 149.2c-20 0-28 10.76-30.92 17.16-8 17.22 4.52 33.84 8.52 38.52l0.58 0.66 213.2 213.24c6.994 6.472 16.364 10.466 26.665 10.54h0.015c-0.020 0.473-0.031 1.028-0.031 1.586 0 11.097 4.498 21.143 11.771 28.414l275.74 275.68c7.284 7.292 17.35 11.802 28.47 11.802s21.186-4.51 28.47-11.802v0l46.34-46.32c7.288-7.289 11.795-17.358 11.795-28.48s-4.508-21.191-11.796-28.48l-275.74-275.72c-5.816-5.843-13.424-9.897-21.931-11.269l-0.229-0.031c0.457-2.458 0.718-5.286 0.718-8.176 0-9.835-3.028-18.964-8.202-26.504l0.103 0.16c-72.28-113.060-226.38-154.56-297.78-160.72-2.12-0.18-4-0.28-5.84-0.28z" />
<glyph unicode="&#xe961;" d="M503.060 322.34c-66.46-104-212.72-144.52-280.7-150.38-26.74-2.32-9.16 18.26-9.16 18.26l212.6 212.6s12.88 12 31.080-6.14 38.52-37.38 38.52-37.38 21.16-15.86 7.66-36.96zM764.96 719.040c-3.201 3.21-7.629 5.197-12.52 5.197s-9.319-1.986-12.52-5.196v0l-275.7-275.7c-3.202-3.209-5.182-7.638-5.182-12.53s1.98-9.321 5.182-12.53v0l46.32-46.28c3.208-3.196 7.633-5.172 12.52-5.172s9.312 1.976 12.521 5.172l275.719 275.679c3.206 3.203 5.188 7.63 5.188 12.52s-1.983 9.317-5.188 12.52v0z" />
</font>
</defs>
</svg>
